<?xml version="1.0" encoding="UTF-8" standalone="no"?>
<!DOCTYPE svg PUBLIC "-//W3C//DTD SVG 1.1//EN" "http://www.w3.org/Graphics/SVG/1.1/DTD/svg11.dtd">
<!-- Generated by Microsoft Visio, SVG Export bem-dynamic.svg new-page -->
<svg xmlns="http://www.w3.org/2000/svg" xmlns:xlink="http://www.w3.org/1999/xlink" xmlns:ev="http://www.w3.org/2001/xml-events"
		xmlns:v="http://schemas.microsoft.com/visio/2003/SVGExtensions/" width="11.811in" height="11.2205in"
		viewBox="0 0 850.394 807.874" xml:space="preserve" color-interpolation-filters="sRGB" class="st27">
	<v:documentProperties v:langID="1049" v:metric="true" v:viewMarkup="false">
		<v:userDefs>
			<v:ud v:nameU="msvNoAutoConnect" v:val="VT0(1):26"/>
			<v:ud v:nameU="msvConvertTheme"/>
			<v:ud v:nameU="DocShowPicture" v:prompt="" v:val="VT0(1):26"/>
			<v:ud v:nameU="visTLShowProps" v:prompt="" v:val="VT0(0):26"/>
		</v:userDefs>
	</v:documentProperties>

	<style type="text/css">
	<![CDATA[
		.st1 {fill:#ffcc00;stroke:none;stroke-linecap:round;stroke-linejoin:round;stroke-width:0.72}
		.st2 {fill:none;marker-end:url(#mrkr13-6);stroke:none;stroke-linecap:butt;stroke-width:1.5}
		.st3 {fill:#ffcc00;fill-opacity:1;stroke:#ffcc00;stroke-opacity:1;stroke-width:0.37313432835821}
		.st4 {fill:#000000;font-family:Yandex Sans Text Light;font-size:1.33333em;font-weight:bold}
		.st5 {stroke:#000000;stroke-linecap:butt;stroke-width:1.5}
		.st6 {fill:#000000;font-family:Yandex Sans Text Light;font-size:1.33333em}
		.st7 {fill:#ff6666;font-family:Yandex Sans Text Light;font-size:1.33333em}
		.st8 {marker-end:url(#mrkr3-131);stroke:#000000;stroke-linecap:butt;stroke-width:1.5}
		.st9 {fill:#000000;fill-opacity:1;stroke:#000000;stroke-opacity:1;stroke-width:0.45454545454545}
		.st10 {stroke:#000000;stroke-linecap:round;stroke-linejoin:round;stroke-width:1.5}
		.st11 {fill:#002060;font-family:Yandex Sans Text Light;font-size:1.33333em}
		.st12 {fill:#000000;font-size:1em}
		.st13 {fill:#000000;fill-opacity:0.047;stroke:#000000;stroke-linecap:butt;stroke-opacity:0.2;stroke-width:0.75}
		.st14 {fill:none;stroke:#ffffff;stroke-linecap:butt;stroke-width:0.75}
		.st15 {font-size:1em}
		.st16 {fill:#ffffff;stroke:none;stroke-linecap:butt;stroke-width:0.75}
		.st17 {fill:#ffffff;stroke:#000000;stroke-linecap:butt;stroke-opacity:0.2;stroke-width:1.5}
		.st18 {fill:none;stroke:none;stroke-linecap:butt;stroke-width:0.75}
		.st19 {fill:#000000;font-family:Calibri;font-size:1.33333em;opacity:0.196078}
		.st20 {fill:none;stroke:none;stroke-linecap:butt;stroke-width:1.5}
		.st21 {fill:#000000;font-family:Calibri;font-size:1.16666em}
		.st22 {fill:#ffffff;stroke:#ffdb47;stroke-linecap:butt;stroke-width:3}
		.st23 {fill:#000000;font-family:Calibri;font-size:1.33333em}
		.st24 {stroke:#c4c4c4;stroke-linecap:butt;stroke-width:1.5}
		.st25 {fill:#000000;stroke:none;stroke-linecap:butt;stroke-width:0.75}
		.st26 {fill:#ff2500;stroke:none;stroke-linecap:butt;stroke-width:0.75}
		.st27 {fill:none;fill-rule:evenodd;font-size:12px;overflow:visible;stroke-linecap:square;stroke-miterlimit:3}
	]]>
	</style>

	<defs id="Patterns_And_Gradients">
		<linearGradient id="grad0-11" x1="0" y1="0" x2="1" y2="0" gradientTransform="rotate(270 0.5 0.5)">
			<stop offset="0" stop-color="#f2f2f2" stop-opacity="1"/>
			<stop offset="1" stop-color="#ffffff" stop-opacity="1"/>
		</linearGradient>
		<linearGradient id="grad0-128" x1="0" y1="0" x2="1" y2="0" gradientTransform="rotate(270 0.5 0.5)">
			<stop offset="0" stop-color="#1e1e1e" stop-opacity="1"/>
			<stop offset="1" stop-color="#000000" stop-opacity="1"/>
		</linearGradient>
		<linearGradient id="grad0-316" x1="0" y1="0" x2="1" y2="0" gradientTransform="rotate(270 0.5 0.5)">
			<stop offset="0" stop-color="#d0d0d0" stop-opacity="1"/>
			<stop offset="1" stop-color="#bfbfbf" stop-opacity="1"/>
		</linearGradient>
	</defs>
	<defs id="Markers">
		<g id="lend13">
			<path d="M 3 1 L 0 0 L 3 -1 L 3 1 " style="stroke:none"/>
		</g>
		<marker id="mrkr13-6" class="st3" v:arrowType="13" v:arrowSize="2" v:setback="8.04" refX="-8.04" orient="auto"
				markerUnits="strokeWidth" overflow="visible">
			<use xlink:href="#lend13" transform="scale(-2.68,-2.68) "/>
		</marker>
		<g id="lend3">
			<path d="M 2 1 L 0 0 L 2 -1 " style="stroke-linecap:round;stroke-linejoin:round;fill:none"/>
		</g>
		<marker id="mrkr3-131" class="st9" v:arrowType="3" v:arrowSize="1" orient="auto" markerUnits="strokeWidth"
				overflow="visible">
			<use xlink:href="#lend3" transform="scale(-2.2,-2.2) "/>
		</marker>
	</defs>
	<g v:mID="4" v:index="2" v:groupContext="foregroundPage">
		<title>scheme1</title>
		<v:pageProperties v:drawingScale="0.0393701" v:pageScale="0.0393701" v:drawingUnits="24" v:shadowOffsetX="8.50394"
				v:shadowOffsetY="-8.50394"/>
		<v:layer v:name="Flowchart" v:index="0"/>
		<v:layer v:name="Connector" v:index="1"/>
		<g id="shape1-1" v:mID="1" v:groupContext="shape" transform="translate(216.622,-566.929)">
			<title>Горизонтальная линия выноски.540</title>
			<path d="M0 807.87 L134.31 807.87 L0 807.87 Z" class="st1"/>
		</g>
		<g id="shape4-3" v:mID="4" v:groupContext="shape" transform="translate(23.5276,-566.929)">
			<title>Text (14).543</title>
			<desc>Source files</desc>
			<v:textBlock v:margins="rect(4,4,4,4)" v:tabSpace="42.5197"/>
			<v:textRect cx="66.6142" cy="793.701" width="133.23" height="28.3465"/>
			<rect x="0" y="779.528" width="133.228" height="28.3465" class="st2"/>
			<text x="25.49" y="798.5" class="st4" v:langID="1033"><v:paragraph v:horizAlign="1"/><v:tabList/>Source files</text>		</g>
		<g id="shape5-8" v:mID="5" v:groupContext="shape" transform="translate(960.094,383.528) rotate(90)">
			<title>Line.544</title>
			<path d="M0 807.87 L106.87 807.87" class="st5"/>
		</g>
		<g id="shape6-13" v:mID="6" v:groupContext="shape" transform="translate(99.4961,-504.567)">
			<title>Text (14).543.6</title>
			<desc>blocks/</desc>
			<v:textBlock v:margins="rect(4,4,4,4)" v:tabSpace="42.5197"/>
			<v:textRect cx="42.5197" cy="793.701" width="85.04" height="28.3465"/>
			<rect x="0" y="779.528" width="85.0394" height="28.3465" class="st2"/>
			<text x="16.42" y="798.5" class="st6" v:langID="1033"><v:paragraph v:horizAlign="1"/><v:tabList/>blocks/</text>		</g>
		<g id="shape7-17" v:mID="7" v:groupContext="shape" transform="translate(125.575,-431.433)">
			<title>Line.544.7</title>
			<path d="M0 807.87 L14.17 807.87" class="st5"/>
		</g>
		<g id="shape8-21" v:mID="8" v:groupContext="shape" transform="translate(130.252,-417.26)">
			<title>Text (14).543.8</title>
			<desc>header/</desc>
			<v:textBlock v:margins="rect(4,4,4,4)" v:tabSpace="42.5197"/>
			<v:textRect cx="42.5197" cy="793.701" width="85.04" height="28.3465"/>
			<rect x="0" y="779.528" width="85.0394" height="28.3465" class="st2"/>
			<text x="14.26" y="798.5" class="st7" v:langID="1033"><v:paragraph v:horizAlign="1"/><v:tabList/>header/</text>		</g>
		<g id="shape10-25" v:mID="10" v:groupContext="shape" transform="translate(152.22,-403.087)">
			<title>Text (14).543.10</title>
			<desc>__logo/</desc>
			<v:textBlock v:margins="rect(4,4,4,4)" v:tabSpace="42.5197"/>
			<v:textRect cx="42.5197" cy="793.701" width="85.04" height="28.3465"/>
			<rect x="0" y="779.528" width="85.0394" height="28.3465" class="st2"/>
			<text x="17.57" y="798.5" class="st7" v:langID="1033"><v:paragraph v:horizAlign="1"/><v:tabList/>__logo/</text>		</g>
		<g id="shape11-29" v:mID="11" v:groupContext="shape" transform="translate(152.22,-417.26)">
			<title>Line.11</title>
			<path d="M0 807.87 L14.17 807.87" class="st5"/>
		</g>
		<g id="shape12-33" v:mID="12" v:groupContext="shape" transform="translate(152.22,-403.087)">
			<title>Line.12</title>
			<path d="M0 807.87 L14.17 807.87" class="st5"/>
		</g>
		<g id="shape15-37" v:mID="15" v:groupContext="shape" transform="translate(152.22,-388.913)">
			<title>Line.15</title>
			<path d="M0 807.87 L14.17 807.87" class="st5"/>
		</g>
		<g id="shape16-41" v:mID="16" v:groupContext="shape" transform="translate(152.22,-374.74)">
			<title>Line.16</title>
			<path d="M0 807.87 L14.17 807.87" class="st5"/>
		</g>
		<g id="shape17-45" v:mID="17" v:groupContext="shape" transform="translate(34.8661,-532.913)">
			<title>Text (14).17</title>
			<desc>project/</desc>
			<v:textBlock v:margins="rect(4,4,4,4)" v:tabSpace="42.5197"/>
			<v:textRect cx="42.5197" cy="793.701" width="85.04" height="28.3465"/>
			<rect x="0" y="779.528" width="85.0394" height="28.3465" class="st2"/>
			<text x="14.14" y="798.5" class="st6" v:langID="1033"><v:paragraph v:horizAlign="1"/><v:tabList/>project/</text>		</g>
		<g id="shape18-49" v:mID="18" v:groupContext="shape" transform="translate(91.5591,-518.74)">
			<title>Line.544.18</title>
			<path d="M0 807.87 L19.84 807.87" class="st5"/>
		</g>
		<g id="shape19-53" v:mID="19" v:groupContext="shape" transform="translate(900.142,277.795) rotate(90)">
			<title>Line.544.19</title>
			<path d="M0 807.87 L11.34 807.87" class="st5"/>
		</g>
		<g id="shape20-57" v:mID="20" v:groupContext="shape" transform="translate(94.3937,-120.472)">
			<title>Line.20</title>
			<path d="M0 807.87 L19.84 807.87" class="st5"/>
		</g>
		<g id="shape21-61" v:mID="21" v:groupContext="shape" transform="translate(902.976,676.063) rotate(90)">
			<title>Line.21</title>
			<path d="M0 807.87 L11.34 807.87" class="st5"/>
		</g>
		<g id="shape22-65" v:mID="22" v:groupContext="shape" transform="translate(87.5906,-106.299)">
			<title>Text (14).22</title>
			<desc>lib/</desc>
			<v:textBlock v:margins="rect(4,4,4,4)" v:tabSpace="42.5197"/>
			<v:textRect cx="42.5197" cy="793.701" width="85.04" height="28.3465"/>
			<rect x="0" y="779.528" width="85.0394" height="28.3465" class="st2"/>
			<text x="31.05" y="798.5" class="st6" v:langID="1033"><v:paragraph v:horizAlign="1"/><v:tabList/>lib/</text>		</g>
		<g id="shape23-69" v:mID="23" v:groupContext="shape" transform="translate(126.283,-104.882)">
			<title>Line.23</title>
			<path d="M0 807.87 L14.17 807.87" class="st5"/>
		</g>
		<g id="shape24-73" v:mID="24" v:groupContext="shape" transform="translate(137.48,-70.8661)">
			<title>Text (14).24</title>
			<desc>input/</desc>
			<v:textBlock v:margins="rect(4,4,4,4)" v:tabSpace="42.5197"/>
			<v:textRect cx="28.3465" cy="801.496" width="56.7" height="12.7559"/>
			<rect x="0" y="795.118" width="56.6929" height="12.7559" class="st2"/>
			<text x="6.55" y="806.3" class="st7" v:langID="1033"><v:paragraph v:horizAlign="1"/><v:tabList/>input/</text>		</g>
		<g id="shape25-77" v:mID="25" v:groupContext="shape" transform="translate(114.945,-62.3622)">
			<title>Text (14).25</title>
			<rect x="0" y="779.528" width="85.0394" height="28.3465" class="st2"/>
		</g>
		<g id="shape26-80" v:mID="26" v:groupContext="shape" transform="translate(126.283,-90.7087)">
			<title>Line.26</title>
			<path d="M0 807.87 L14.17 807.87" class="st5"/>
		</g>
		<g id="shape27-84" v:mID="27" v:groupContext="shape" transform="translate(126.283,-76.5354)">
			<title>Line.27</title>
			<path d="M0 807.87 L14.17 807.87" class="st5"/>
		</g>
		<g id="shape28-88" v:mID="28" v:groupContext="shape" transform="translate(136.488,-56.6929)">
			<title>Text (14).28</title>
			<desc>icon/</desc>
			<v:textBlock v:margins="rect(4,4,4,4)" v:tabSpace="42.5197"/>
			<v:textRect cx="25.937" cy="801.496" width="51.88" height="12.7559"/>
			<rect x="0" y="795.118" width="51.874" height="12.7559" class="st2"/>
			<text x="7.86" y="806.3" class="st6" v:langID="1033"><v:paragraph v:horizAlign="1"/><v:tabList/>icon/</text>		</g>
		<g id="shape29-92" v:mID="29" v:groupContext="shape" transform="translate(135.213,-85.0394)">
			<title>Text (14).29</title>
			<desc>control-group/</desc>
			<v:textBlock v:margins="rect(4,4,4,4)" v:tabSpace="42.5197"/>
			<v:textRect cx="62.6457" cy="801.496" width="125.3" height="12.7559"/>
			<rect x="0" y="795.118" width="125.291" height="12.7559" class="st2"/>
			<text x="9.53" y="806.3" class="st7" v:langID="1033"><v:paragraph v:horizAlign="1"/><v:tabList/>control-group/</text>		</g>
		<g id="shape30-96" v:mID="30" v:groupContext="shape" transform="translate(126.283,-62.3622)">
			<title>Line.30</title>
			<path d="M0 807.87 L14.17 807.87" class="st5"/>
		</g>
		<g id="shape31-100" v:mID="31" v:groupContext="shape" transform="translate(126.283,-48.189)">
			<title>Line.31</title>
			<path d="M0 807.87 L14.17 807.87" class="st5"/>
		</g>
		<g id="shape32-104" v:mID="32" v:groupContext="shape" transform="translate(128.976,-99.2126)">
			<title>Text (14).32</title>
			<desc>button/</desc>
			<v:textBlock v:margins="rect(4,4,4,4)" v:tabSpace="42.5197"/>
			<v:textRect cx="42.5197" cy="800.787" width="85.04" height="14.1732"/>
			<rect x="0" y="793.701" width="85.0394" height="14.1732" class="st2"/>
			<text x="15.01" y="805.59" class="st7" v:langID="1033"><v:paragraph v:horizAlign="1"/><v:tabList/>button/</text>		</g>
		<g id="shape33-108" v:mID="33" v:groupContext="shape" transform="translate(934.583,694.488) rotate(90)">
			<title>Line.33</title>
			<path d="M0 807.87 L77.95 807.87" class="st5"/>
		</g>
		<g id="shape34-112" v:mID="34" v:groupContext="shape" transform="translate(132.945,-42.5197)">
			<title>Text (14).543.34</title>
			<desc>image/</desc>
			<v:textBlock v:margins="rect(4,4,4,4)" v:tabSpace="42.5197"/>
			<v:textRect cx="36.8504" cy="800.787" width="73.71" height="14.1732"/>
			<rect x="0" y="793.701" width="73.7008" height="14.1732" class="st2"/>
			<text x="11.48" y="805.59" class="st7" v:langID="1033"><v:paragraph v:horizAlign="1"/><v:tabList/>image/</text>		</g>
		<g id="shape35-116" v:mID="35" v:groupContext="shape" transform="translate(128.409,-28.3465)">
			<title>Text (14).543.35</title>
			<desc>popup/</desc>
			<v:textBlock v:margins="rect(4,4,4,4)" v:tabSpace="42.5197"/>
			<v:textRect cx="42.5197" cy="800.787" width="85.04" height="14.1732"/>
			<rect x="0" y="793.701" width="85.0394" height="14.1732" class="st2"/>
			<text x="15.57" y="805.59" class="st6" v:langID="1033"><v:paragraph v:horizAlign="1"/><v:tabList/>popup/</text>		</g>
		<g id="shape36-120" v:mID="36" v:groupContext="shape" transform="translate(126.992,-35.4331)">
			<title>Line.36</title>
			<path d="M0 807.87 L14.17 807.87" class="st5"/>
		</g>
		<g id="shape37-124" v:mID="37" v:groupContext="shape" transform="translate(280.913,-496.063)">
			<title>Basic Arrow 1.545</title>
			<path d="M0 807.87 L51.02 807.87" class="st8"/>
		</g>
		<g id="shape39-132" v:mID="39" v:groupContext="shape" transform="translate(280.913,-432.283)">
			<title>Basic Arrow 1.39</title>
			<path d="M0 807.87 L51.02 807.87" class="st8"/>
		</g>
		<g id="shape40-138" v:mID="40" v:groupContext="shape" transform="translate(280.913,-77.6693)">
			<title>Basic Arrow 1.40</title>
			<path d="M0 807.87 L51.02 807.87" class="st8"/>
		</g>
		<g id="shape41-144" v:mID="41" v:groupContext="shape" transform="translate(280.913,-91.8425)">
			<title>Basic Arrow 1.41</title>
			<path d="M0 807.87 L51.02 807.87" class="st8"/>
		</g>
		<g id="shape42-150" v:mID="42" v:groupContext="shape" transform="translate(280.913,-49.3228)">
			<title>Basic Arrow 1.42</title>
			<path d="M0 807.87 L51.02 807.87" class="st8"/>
		</g>
		<g id="shape96-156" v:mID="96" v:groupContext="shape" transform="translate(369.638,-677.853)">
			<title>Text (14).543.96</title>
			<desc>root</desc>
			<v:textBlock v:margins="rect(4,4,4,4)" v:tabSpace="42.5197"/>
			<v:textRect cx="19.5591" cy="785.383" width="39.12" height="44.9814"/>
			<rect x="0" y="762.893" width="39.1181" height="44.9814" class="st2"/>
			<text x="4" y="790.18" class="st7" v:langID="1033"><v:paragraph/><v:tabList/>root</text>		</g>
		<g id="group115-160" transform="translate(-383.528,127.718) rotate(-90)" v:mID="115" v:groupContext="group">
			<v:userDefs>
				<v:ud v:nameU="visVersion" v:val="VT0(12):26"/>
			</v:userDefs>
			<title>Comment.555</title>
			<g id="shape116-161" v:mID="116" v:groupContext="shape" transform="translate(20.0017,-63.4961)">
				<title>Sheet.116</title>
				<path d="M14.17 807.87 L0 807.87" class="st10"/>
			</g>
			<g id="shape117-164" v:mID="117" v:groupContext="shape" transform="translate(807.874,744.378) rotate(90)">
				<title>Sheet.117</title>
				<v:textBlock v:margins="rect(4,4,4,4)" v:tabSpace="42.5197"/>
				<path d="M5.67 767.87 L2.83 767.87 A2.83465 2.83465 -180 0 0 0 770.71 L0 805.04 A2.83465 2.83465 -180 0 0 2.83 807.87
							 L5.67 807.87" class="st10"/>
			</g>
		</g>
		<g id="group118-167" transform="translate(-390.398,127.532) rotate(-90)" v:mID="118" v:groupContext="group">
			<v:userDefs>
				<v:ud v:nameU="visVersion" v:val="VT0(12):26"/>
			</v:userDefs>
			<title>Comment.118</title>
			<g id="shape119-168" v:mID="119" v:groupContext="shape" transform="translate(26.2426,1615.72) rotate(179.557)">
				<title>Sheet.119</title>
				<path d="M8.69 807.87 L0 807.87" class="st10"/>
			</g>
			<g id="shape120-171" v:mID="120" v:groupContext="shape" transform="translate(807.874,807.874) rotate(90) scale(-1,1)">
				<title>Sheet.120</title>
				<v:textBlock v:margins="rect(4,4,4,4)" v:tabSpace="42.5197"/>
				<path d="M6.87 767.87 L3.44 767.87 A3.43514 3.43514 -180 0 0 0 771.31 L0 804.44 A3.43514 3.43514 -180 0 0 3.44 807.87
							 L6.87 807.87" class="st10"/>
			</g>
		</g>
		<g id="shape125-174" v:mID="125" v:groupContext="shape" transform="translate(445.89,-496.063)">
			<title>Basic Arrow 1.125</title>
			<path d="M0 807.87 L51.02 807.87" class="st8"/>
		</g>
		<g id="shape126-180" v:mID="126" v:groupContext="shape" transform="translate(505.417,-575.433)">
			<title>Text (14).126</title>
			<desc>Bundles</desc>
			<v:textBlock v:margins="rect(4,4,4,4)" v:tabSpace="42.5197"/>
			<v:textRect cx="66.6142" cy="802.205" width="133.23" height="11.3386"/>
			<rect x="0" y="796.535" width="133.228" height="11.3386" class="st2"/>
			<text x="37.62" y="807" class="st4" v:langID="1033"><v:paragraph v:horizAlign="1"/><v:tabList/>Bundles</text>		</g>
		<g id="shape129-184" v:mID="129" v:groupContext="shape" transform="translate(516.756,-461.773)">
			<title>Text (14).129</title>
			<desc>“bundle.css” “bundle.js” “bundle.bemhtml.js” “bundle.deps.js”...</desc>
			<v:textBlock v:margins="rect(4,4,4,4)" v:tabSpace="42.5197"/>
			<v:textRect cx="162.992" cy="793.701" width="325.99" height="28.3465"/>
			<rect x="0" y="779.528" width="325.984" height="28.3465" class="st2"/>
			<text x="7.14" y="731.3" class="st11" v:langID="1033"><v:paragraph/><v:tabList/>“bundle.css”<v:newlineChar/><tspan
						x="4" dy="1.2em" class="st12"> </tspan>“bundle.js”<v:newlineChar/><tspan x="4" dy="1.2em" class="st12"> </tspan>“bundle.bemhtml.js”<v:newlineChar/><tspan
						x="4" dy="1.2em" class="st12"> </tspan>“bundle.deps.js”<v:newlineChar/><tspan x="4" dy="1.2em" class="st12"> </tspan>“bundle.html”<v:newlineChar/><tspan
						x="4" dy="1.2em" class="st12">   </tspan><tspan class="st12">...</tspan><v:newlineChar/><v:newlineChar/></text>		</g>
		<g id="group130-194" transform="translate(346.677,-28.3465)" v:mID="130" v:groupContext="group">
			<title>Rectangle-22</title>
			<g id="shape131-195" v:mID="131" v:groupContext="shape">
				<title>path-3</title>
				<path d="M0 800.48 A2.55124 7.3949 -180 0 0 2.55 807.87 L82.49 807.87 A2.55124 7.3949 -180 0 0 85.04 800.48 L85.04
							 248.34 A2.55124 7.3949 -180 0 0 82.49 240.94 L2.55 240.94 A2.55124 7.3949 -180 0 0 -0 248.34 L0 800.48
							 Z" class="st13"/>
			</g>
			<g id="shape132-197" v:mID="132" v:groupContext="shape">
				<title>Sheet.132</title>
				<path d="M0 800.48 A2.55124 7.3949 -180 0 0 2.55 807.87 L82.49 807.87 A2.55124 7.3949 -180 0 0 85.04 800.48 L85.04
							 248.34 A2.55124 7.3949 -180 0 0 82.49 240.94 L2.55 240.94 A2.55124 7.3949 -180 0 0 -0 248.34 L0 800.48
							 Z" class="st14"/>
			</g>
		</g>
		<g id="shape133-199" v:mID="133" v:groupContext="shape" transform="translate(346.677,-297.638)">
			<title>Text Bold (14).546.133</title>
			<desc>Build</desc>
			<v:textBlock v:margins="rect(4,4,4,4)" v:tabSpace="42.5197"/>
			<v:textRect cx="42.5197" cy="793.701" width="85.04" height="28.3465"/>
			<rect x="0" y="779.528" width="85.0394" height="28.3465" class="st2"/>
			<text x="24.58" y="798.5" class="st4" v:langID="1033"><v:paragraph v:horizAlign="1"/><v:tabList/>Build</text>		</g>
		<g id="shape134-203" v:mID="134" v:groupContext="shape" transform="translate(341.008,-737.008)">
			<title>Text Bold (14).134</title>
			<desc>Declaration (BEMDECL)</desc>
			<v:textBlock v:margins="rect(4,4,4,4)" v:tabSpace="42.5197"/>
			<v:textRect cx="48.189" cy="793.701" width="96.38" height="28.3465"/>
			<rect x="0" y="779.528" width="96.378" height="28.3465" class="st2"/>
			<text x="7.17" y="788.9" class="st4" v:langID="1033"><v:paragraph v:horizAlign="1"/><v:tabList/>Declaration <tspan
						x="6.99" dy="1.2em" class="st15">(</tspan>BEMDECL)</text>		</g>
		<g id="shape135-208" v:mID="135" v:groupContext="shape" transform="translate(1197.07,141.732) rotate(90)">
			<title>Basic Arrow 1.135</title>
			<path d="M0 807.87 L42.52 807.87" class="st8"/>
		</g>
		<g id="shape136-214" v:mID="136" v:groupContext="shape" transform="translate(934.157,365.102) rotate(90)">
			<title>Line.136</title>
			<path d="M0 807.87 L11.34 807.87" class="st5"/>
		</g>
		<g id="shape137-218" v:mID="137" v:groupContext="shape" transform="translate(161.858,-388.913)">
			<title>Text (14).137</title>
			<desc>__nameplate/</desc>
			<v:textBlock v:margins="rect(4,4,4,4)" v:tabSpace="42.5197"/>
			<v:textRect cx="55.2756" cy="793.701" width="110.56" height="28.3465"/>
			<rect x="0" y="779.528" width="110.551" height="28.3465" class="st2"/>
			<text x="7.81" y="798.5" class="st7" v:langID="1033"><v:paragraph v:horizAlign="1"/><v:tabList/>__nameplate/</text>		</g>
		<g id="shape138-222" v:mID="138" v:groupContext="shape" transform="translate(161.858,-374.74)">
			<title>Text (14).138</title>
			<desc>__search-input/</desc>
			<v:textBlock v:margins="rect(4,4,4,4)" v:tabSpace="42.5197"/>
			<v:textRect cx="62.3622" cy="793.701" width="124.73" height="28.3465"/>
			<rect x="0" y="779.528" width="124.724" height="28.3465" class="st2"/>
			<text x="7.83" y="798.5" class="st7" v:langID="1033"><v:paragraph v:horizAlign="1"/><v:tabList/>__search-input/</text>		</g>
		<g id="shape139-226" v:mID="139" v:groupContext="shape" transform="translate(162.425,-360.567)">
			<title>Text (14).139</title>
			<desc>__side/</desc>
			<v:textBlock v:margins="rect(4,4,4,4)" v:tabSpace="42.5197"/>
			<v:textRect cx="31.1811" cy="793.701" width="62.37" height="28.3465"/>
			<rect x="0" y="779.528" width="62.3622" height="28.3465" class="st2"/>
			<text x="7.34" y="798.5" class="st7" v:langID="1033"><v:paragraph v:horizAlign="1"/><v:tabList/>__side/</text>		</g>
		<g id="shape140-230" v:mID="140" v:groupContext="shape" transform="translate(162.425,-345.827)">
			<title>Text (14).140</title>
			<desc>header.bemhtml.js</desc>
			<v:textBlock v:margins="rect(4,4,4,4)" v:tabSpace="42.5197"/>
			<v:textRect cx="73.9843" cy="793.701" width="147.97" height="28.3465"/>
			<rect x="0" y="779.528" width="147.969" height="28.3465" class="st2"/>
			<text x="6.11" y="798.5" class="st7" v:langID="1033"><v:paragraph v:horizAlign="1"/><v:tabList/>header.bemhtml.js</text>		</g>
		<g id="shape141-234" v:mID="141" v:groupContext="shape" transform="translate(152.22,-360.567)">
			<title>Line.141</title>
			<path d="M0 807.87 L14.17 807.87" class="st5"/>
		</g>
		<g id="shape142-238" v:mID="142" v:groupContext="shape" transform="translate(960.094,521.575) rotate(90)">
			<title>Line.142</title>
			<path d="M0 807.87 L19.84 807.87" class="st5"/>
		</g>
		<g id="shape143-242" v:mID="143" v:groupContext="shape" transform="translate(125.929,-295.37)">
			<title>Line.143</title>
			<path d="M0 807.87 L14.17 807.87" class="st5"/>
		</g>
		<g id="shape144-246" v:mID="144" v:groupContext="shape" transform="translate(121.039,-281.197)">
			<title>Text (14).144</title>
			<desc>logo/</desc>
			<v:textBlock v:margins="rect(4,4,4,4)" v:tabSpace="42.5197"/>
			<v:textRect cx="41.9528" cy="793.701" width="83.91" height="28.3465"/>
			<rect x="0" y="779.528" width="83.9055" height="28.3465" class="st2"/>
			<text x="23.02" y="798.5" class="st7" v:langID="1033"><v:paragraph v:horizAlign="1"/><v:tabList/>logo/</text>		</g>
		<g id="shape145-250" v:mID="145" v:groupContext="shape" transform="translate(161.504,-267.024)">
			<title>Text (14).145</title>
			<desc>logo.bemhtml.js</desc>
			<v:textBlock v:margins="rect(4,4,4,4)" v:tabSpace="42.5197"/>
			<v:textRect cx="65.374" cy="793.701" width="130.75" height="28.3465"/>
			<rect x="0" y="779.528" width="130.748" height="28.3465" class="st2"/>
			<text x="6.83" y="798.5" class="st7" v:langID="1033"><v:paragraph v:horizAlign="1"/><v:tabList/>logo.bemhtml.js</text>		</g>
		<g id="shape146-254" v:mID="146" v:groupContext="shape" transform="translate(151.654,-281.197)">
			<title>Line.146</title>
			<path d="M0 807.87 L14.17 807.87" class="st5"/>
		</g>
		<g id="shape147-258" v:mID="147" v:groupContext="shape" transform="translate(151.654,-267.024)">
			<title>Line.147</title>
			<path d="M0 807.87 L14.17 807.87" class="st5"/>
		</g>
		<g id="shape150-262" v:mID="150" v:groupContext="shape" transform="translate(934.583,501.732) rotate(90)">
			<title>Line.150</title>
			<path d="M0 807.87 L11.34 807.87" class="st5"/>
		</g>
		<g id="shape151-266" v:mID="151" v:groupContext="shape" transform="translate(156.756,-252.85)">
			<title>Text (14).151</title>
			<desc>logo.deps.js</desc>
			<v:textBlock v:margins="rect(4,4,4,4)" v:tabSpace="42.5197"/>
			<v:textRect cx="55.2756" cy="793.701" width="110.56" height="28.3465"/>
			<rect x="0" y="779.528" width="110.551" height="28.3465" class="st2"/>
			<text x="11.67" y="798.5" class="st7" v:langID="1033"><v:paragraph v:horizAlign="1"/><v:tabList/>logo.deps.js</text>		</g>
		<g id="shape155-270" v:mID="155" v:groupContext="shape" transform="translate(280.913,-106.016)">
			<title>Basic Arrow 1.155</title>
			<path d="M0 807.87 L51.02 807.87" class="st8"/>
		</g>
		<g id="shape160-276" v:mID="160" v:groupContext="shape" transform="translate(1381.32,382.677) rotate(90)">
			<title>Basic Arrow 1.160</title>
			<path d="M0 807.87 L42.52 807.87" class="st8"/>
		</g>
		<g id="group180-282" transform="translate(431.717,-248.576)" v:mID="180" v:groupContext="group">
			<title>Group</title>
			<g id="group193-283" transform="translate(24.5804,-56.6929)" v:mID="193" v:groupContext="group">
				<title>Header-Copy-3</title>
				<g id="group194-284" transform="translate(153.692,0.544882)" v:mID="194" v:groupContext="group">
					<title>form</title>
					<g id="group195-285" v:mID="195" v:groupContext="group">
						<title>input</title>
						<g id="group196-286" v:mID="196" v:groupContext="group">
							<title>Rectangle-12</title>
							<g id="shape197-287" v:mID="197" v:groupContext="shape">
								<title>path-1</title>
								<path d="M0 805.48 A2.91889 2.39179 -180 0 0 2.92 807.87 L196.53 807.87 A2.91889 2.39179 -180 0 0
											 199.45 805.48 L199.45 784.75 A2.91889 2.39179 -180 0 0 196.53 782.36 L2.92 782.36 A2.91889
											 2.39179 -180 0 0 -0 784.75 L0 805.48 Z" class="st16"/>
							</g>
							<g id="shape198-289" v:mID="198" v:groupContext="shape">
								<title>Sheet.198</title>
								<path d="M0 805.48 A2.91889 2.39179 -180 0 0 2.92 807.87 L196.53 807.87 A2.91889 2.39179 -180 0 0
											 199.45 805.48 L199.45 784.75 A2.91889 2.39179 -180 0 0 196.53 782.36 L2.92 782.36 A2.91889
											 2.39179 -180 0 0 -0 784.75 L0 805.48 Z" class="st16"/>
							</g>
							<g id="shape199-291" v:mID="199" v:groupContext="shape">
								<title>Sheet.199</title>
								<path d="M0 805.48 A2.91889 2.39179 -180 0 0 2.92 807.87 L196.53 807.87 A2.91889 2.39179 -180 0 0
											 199.45 805.48 L199.45 784.75 A2.91889 2.39179 -180 0 0 196.53 782.36 L2.92 782.36 A2.91889
											 2.39179 -180 0 0 -0 784.75 L0 805.48 Z" class="st17"/>
							</g>
						</g>
						<g id="shape200-293" v:mID="200" v:groupContext="shape" transform="translate(29.1883,-5.97933)">
							<title>Track,-artist</title>
							<desc>Track, artist</desc>
							<v:textBlock v:margins="rect(0,0,0,0)" v:tabSpace="42.5197"/>
							<v:textRect cx="94.8619" cy="800.699" width="189.73" height="14.3504"/>
							<rect x="0" y="793.524" width="189.724" height="14.3504" class="st18"/>
							<text x="0" y="805.5" class="st19" v:langID="1049"><v:paragraph/><v:tabList/>Track, artist</text>						</g>
					</g>
					<g id="group201-296" transform="translate(129.492,1.13687E-013)" v:mID="201" v:groupContext="group">
						<title>button</title>
						<g id="group202-297" v:mID="202" v:groupContext="group">
							<title>Rectangle-12</title>
							<g id="shape203-298" v:mID="203" v:groupContext="shape">
								<title>path-4</title>
								<rect x="0" y="782.362" width="70.0519" height="25.5118" class="st18"/>
							</g>
							<g id="shape204-300" v:mID="204" v:groupContext="shape">
								<title>Sheet.204</title>
								<rect x="0" y="782.362" width="70.0519" height="25.5118" class="st18"/>
							</g>
							<g id="shape205-302" v:mID="205" v:groupContext="shape">
								<title>Sheet.205</title>
								<rect x="0" y="782.362" width="70.0519" height="25.5118" class="st20"/>
							</g>
						</g>
						<g id="shape206-304" v:mID="206" v:groupContext="shape" transform="translate(20.7963,-5.97933)">
							<title>Search</title>
							<desc>Search</desc>
							<v:textBlock v:margins="rect(0,0,0,0)" v:tabSpace="42.5197"/>
							<v:textRect cx="43.7824" cy="800.699" width="87.57" height="14.3504"/>
							<rect x="0" y="793.524" width="87.5648" height="14.3504" class="st18"/>
							<text x="-0" y="804.9" class="st21" v:langID="1049"><v:paragraph/><v:tabList/>Search</text>						</g>
					</g>
				</g>
				<g id="group207-307" transform="translate(102.412,-0.0740161)" v:mID="207" v:groupContext="group">
					<title>Service-Label</title>
					<g id="shape208-308" v:mID="208" v:groupContext="shape">
						<title>path-7</title>
						<path d="M0 783.69 L67.13 783.69 L74.92 795.78 L67.13 807.87 L0 807.87 L0 783.69 Z" class="st22"/>
					</g>
					<g id="shape209-310" v:mID="209" v:groupContext="shape" transform="translate(14.7402,-4.425)">
						<title>Music</title>
						<desc>Music</desc>
						<v:textBlock v:margins="rect(0,0,0,0)" v:tabSpace="42.5197"/>
						<v:textRect cx="41.3501" cy="800.224" width="82.71" height="15.3"/>
						<rect x="0" y="792.574" width="82.7001" height="15.3" class="st18"/>
						<text x="0" y="805.02" class="st23" v:langID="1049"><v:paragraph/><v:tabList/>Music</text>					</g>
				</g>
			</g>
		</g>
		<g id="shape210-313" v:mID="210" v:groupContext="shape" transform="translate(-57.6476,499.6) rotate(-89.7483)">
			<title>Line.544.210</title>
			<path d="M0 807.87 L25.51 807.87" class="st24"/>
		</g>
		<g id="shape211-318" v:mID="211" v:groupContext="shape" transform="translate(505.417,-354.331)">
			<title>Text (14).211</title>
			<desc>Result</desc>
			<v:textBlock v:margins="rect(4,4,4,4)" v:tabSpace="42.5197"/>
			<v:textRect cx="66.6142" cy="802.205" width="133.23" height="11.3386"/>
			<rect x="0" y="796.535" width="133.228" height="11.3386" class="st2"/>
			<text x="44.32" y="807" class="st4" v:langID="1033"><v:paragraph v:horizAlign="1"/><v:tabList/>Result</text>		</g>
		<g id="group212-322" transform="translate(473.102,-305.008)" v:mID="212" v:groupContext="group">
			<title>Yandex</title>
			<g id="shape213-323" v:mID="213" v:groupContext="shape" transform="translate(14.7887,2.27374E-013)">
				<title>Shape</title>
				<path d="M9.04 787.16 L6.9 787.16 C6.73 787.16 6.62 787.3 6.62 787.41 L6.62 794.01 L2.66 794.01 L2.66 787.41 C2.66
							 787.23 2.59 787.16 2.42 787.16 L0.28 787.16 C0.1 787.16 0 787.27 0 787.41 L0 804.21 C0 804.38 0.07 804.49
							 0.24 804.49 L2.42 804.49 C2.55 804.49 2.66 804.38 2.66 804.21 L2.66 796.19 L6.62 796.19 L6.62 804.21
							 C6.62 804.38 6.73 804.49 6.9 804.49 L9.04 804.49 C9.21 804.49 9.28 804.35 9.28 804.21 L9.28 787.41 C9.28
							 787.27 9.18 787.16 9.04 787.16 ZM57.32 802.2 C57.29 802.1 57.25 802.06 57.15 802.06 C56.98 802.06 56.05
							 802.45 54.7 802.45 C52.08 802.45 50.8 799.92 50.8 795.91 C50.8 792.38 51.87 788.89 53.67 788.89 C54.15
							 788.89 54.74 789.03 55.67 789.9 C55.77 790 55.84 790.03 55.94 790.03 C56.05 790.03 56.15 789.96 56.25
							 789.79 L57.19 788.27 C57.25 788.17 57.29 788.06 57.29 787.96 C57.29 787.82 57.15 787.72 56.94 787.61
							 C55.53 786.89 54.56 786.75 53.74 786.75 C50.49 786.75 47.97 790.62 47.97 796.67 C47.97 801.89 50.39
							 804.9 53.84 804.9 C55.29 804.9 56.84 804.21 57.46 803.76 C57.6 803.65 57.64 803.52 57.6 803.38 L57.32
							 802.2 ZM42.66 794.98 L46.8 787.41 C46.87 787.3 46.84 787.16 46.7 787.16 L44.66 787.16 C44.08 787.16
							 43.87 787.37 43.66 787.82 L40.56 794.29 C40.39 794.67 40.21 794.91 40.04 795.01 L40.04 787.41 C40.04
							 787.27 39.97 787.16 39.83 787.16 L37.59 787.16 C37.49 787.16 37.38 787.27 37.38 787.41 L37.38 804.24
							 C37.38 804.35 37.45 804.49 37.59 804.49 L39.83 804.49 C39.97 804.49 40.04 804.38 40.04 804.24 L40.04
							 795.57 C40.14 795.64 40.21 795.74 40.28 795.88 L44.22 803.97 C44.42 804.38 44.73 804.49 45.18 804.49
							 L47.39 804.49 C47.53 804.49 47.56 804.35 47.49 804.24 L42.66 794.98 ZM22.42 802.31 L22.01 802.31 C21.49
							 802.31 21.35 802.1 21.35 801.68 L21.35 787.41 C21.35 787.23 21.28 787.16 21.14 787.16 L14.24 787.16
							 C14.07 787.16 13.97 787.27 13.97 787.41 L13.97 788.65 C13.97 792.84 13.73 798.23 11.52 802.31 L10.76
							 802.31 C10.55 802.31 10.48 802.41 10.48 802.58 L10.48 807.63 C10.48 807.81 10.62 807.87 10.72 807.87
							 L12.38 807.87 C12.76 807.87 12.9 807.6 12.9 807.36 L12.9 804.49 L20.28 804.49 L20.28 807.63 C20.28 807.77
							 20.38 807.87 20.52 807.87 L22.28 807.87 C22.49 807.87 22.7 807.7 22.7 807.36 L22.7 802.58 C22.7 802.41
							 22.59 802.31 22.42 802.31 ZM18.69 802.31 L13.69 802.31 C15.45 799.3 16.14 795.91 16.38 791.76 C16.45
							 790.86 16.49 789.93 16.49 789.34 L18.69 789.34 L18.69 802.31 ZM29.74 786.75 C26.01 786.75 24.36 791.45
							 24.36 796.57 C24.36 801.79 26.7 804.9 30.15 804.9 C31.84 804.9 33.33 804.24 34.08 803.76 C34.22 803.69
							 34.26 803.59 34.22 803.45 L33.95 802.27 C33.91 802.13 33.84 802.06 33.67 802.06 C33.53 802.06 32.53
							 802.45 31.12 802.45 C28.46 802.45 27.22 800.13 27.22 797.09 L27.22 796.27 C27.22 796.27 28.57 796.43
							 29.36 796.43 L34.4 796.43 L34.4 794.98 C34.4 789.62 32.5 786.75 29.74 786.75 ZM29.36 794.25 C28.56 794.25
							 27.32 794.39 27.32 794.39 C27.32 794.39 27.32 793.87 27.39 793.32 C27.7 790.38 28.43 788.89 29.64 788.89
							 C30.74 788.89 31.43 790.42 31.6 793.08 C31.64 793.63 31.64 794.25 31.64 794.25 L29.36 794.25 Z"
						class="st25"/>
			</g>
			<g id="shape214-325" v:mID="214" v:groupContext="shape" transform="translate(0,-3.22254)">
				<title>Sheet.214</title>
				<path d="M12.11 781.95 L8.18 781.95 C4.31 781.95 1.03 784.88 1.03 790.59 C1.03 794.01 2.62 796.53 5.45 797.78 L0.17
							 807.32 C0 807.63 0.17 807.87 0.45 807.87 L2.9 807.87 C3.11 807.87 3.24 807.8 3.31 807.63 L8.11 798.26
							 L9.83 798.26 L9.83 807.63 C9.83 807.73 9.94 807.87 10.07 807.87 L12.21 807.87 C12.42 807.87 12.49 807.77
							 12.49 807.6 L12.49 782.29 C12.49 782.05 12.35 781.95 12.11 781.95 ZM9.83 796.05 L8.38 796.05 C6.11 796.05
							 3.9 794.39 3.9 790.24 C3.9 785.92 5.97 784.16 8.07 784.16 L9.83 784.16 L9.83 796.05 Z" class="st26"/>
			</g>
		</g>
		<g id="shape215-327" v:mID="215" v:groupContext="shape" transform="translate(960.094,320.882) rotate(90)">
			<title>Line.215</title>
			<path d="M0 807.87 L34.02 807.87" class="st5"/>
		</g>
		<g id="shape216-331" v:mID="216" v:groupContext="shape" transform="translate(125.575,-496.063)">
			<title>Line.216</title>
			<path d="M0 807.87 L14.17 807.87" class="st5"/>
		</g>
		<g id="shape217-335" v:mID="217" v:groupContext="shape" transform="translate(121.606,-481.89)">
			<title>Text (14).217</title>
			<desc>form/</desc>
			<v:textBlock v:margins="rect(4,4,4,4)" v:tabSpace="42.5197"/>
			<v:textRect cx="42.5197" cy="793.701" width="85.04" height="28.3465"/>
			<rect x="0" y="779.528" width="85.0394" height="28.3465" class="st2"/>
			<text x="22" y="798.5" class="st7" v:langID="1033"><v:paragraph v:horizAlign="1"/><v:tabList/>form/</text>		</g>
		<g id="shape218-339" v:mID="218" v:groupContext="shape" transform="translate(152.22,-467.717)">
			<title>Text (14).218</title>
			<desc>form.bemhtml.js</desc>
			<v:textBlock v:margins="rect(4,4,4,4)" v:tabSpace="42.5197"/>
			<v:textRect cx="75.9685" cy="793.701" width="151.94" height="28.3465"/>
			<rect x="0" y="779.528" width="151.937" height="28.3465" class="st2"/>
			<text x="15.84" y="798.5" class="st7" v:langID="1033"><v:paragraph v:horizAlign="1"/><v:tabList/>form.bemhtml.js</text>		</g>
		<g id="shape219-343" v:mID="219" v:groupContext="shape" transform="translate(152.22,-481.89)">
			<title>Line.219</title>
			<path d="M0 807.87 L14.17 807.87" class="st5"/>
		</g>
		<g id="shape220-347" v:mID="220" v:groupContext="shape" transform="translate(152.22,-467.717)">
			<title>Line.220</title>
			<path d="M0 807.87 L14.17 807.87" class="st5"/>
		</g>
		<g id="shape221-351" v:mID="221" v:groupContext="shape" transform="translate(152.22,-453.543)">
			<title>Line.221</title>
			<path d="M0 807.87 L14.17 807.87" class="st5"/>
		</g>
		<g id="shape223-355" v:mID="223" v:groupContext="shape" transform="translate(934.157,300.472) rotate(90)">
			<title>Line.223</title>
			<path d="M0 807.87 L11.34 807.87" class="st5"/>
		</g>
		<g id="shape224-359" v:mID="224" v:groupContext="shape" transform="translate(159.024,-453.543)">
			<title>Text (14).224</title>
			<desc>form.bemtree.js</desc>
			<v:textBlock v:margins="rect(4,4,4,4)" v:tabSpace="42.5197"/>
			<v:textRect cx="66.8976" cy="793.701" width="133.8" height="28.3465"/>
			<rect x="0" y="779.528" width="133.795" height="28.3465" class="st2"/>
			<text x="8.92" y="798.5" class="st7" v:langID="1033"><v:paragraph v:horizAlign="1"/><v:tabList/>form.bemtree.js</text>		</g>
		<g id="shape225-363" v:mID="225" v:groupContext="shape" transform="translate(151.087,-439.37)">
			<title>Text (14).225</title>
			<desc>form.deps.js</desc>
			<v:textBlock v:margins="rect(4,4,4,4)" v:tabSpace="42.5197"/>
			<v:textRect cx="62.0787" cy="793.701" width="124.16" height="28.3465"/>
			<rect x="0" y="779.528" width="124.157" height="28.3465" class="st2"/>
			<text x="16.89" y="798.5" class="st7" v:langID="1033"><v:paragraph v:horizAlign="1"/><v:tabList/>form.deps.js</text>		</g>
		<g id="shape229-367" v:mID="229" v:groupContext="shape" transform="translate(160.157,-331.654)">
			<title>Text (14).229</title>
			<desc>header.bemtree.js</desc>
			<v:textBlock v:margins="rect(4,4,4,4)" v:tabSpace="42.5197"/>
			<v:textRect cx="73.9843" cy="793.701" width="147.97" height="28.3465"/>
			<rect x="0" y="779.528" width="147.969" height="28.3465" class="st2"/>
			<text x="8.26" y="798.5" class="st7" v:langID="1033"><v:paragraph v:horizAlign="1"/><v:tabList/>header.bemtree.js</text>		</g>
		<g id="shape230-371" v:mID="230" v:groupContext="shape" transform="translate(151.654,-346.394)">
			<title>Line.230</title>
			<path d="M0 807.87 L14.17 807.87" class="st5"/>
		</g>
		<g id="shape231-375" v:mID="231" v:groupContext="shape" transform="translate(151.654,-332.22)">
			<title>Line.231</title>
			<path d="M0 807.87 L14.17 807.87" class="st5"/>
		</g>
		<g id="shape232-379" v:mID="232" v:groupContext="shape" transform="translate(164.409,-317.48)">
			<title>Text (14).232</title>
			<desc>header.css</desc>
			<v:textBlock v:margins="rect(4,4,4,4)" v:tabSpace="42.5197"/>
			<v:textRect cx="73.9843" cy="793.701" width="147.97" height="28.3465"/>
			<rect x="0" y="779.528" width="147.969" height="28.3465" class="st2"/>
			<text x="4" y="798.5" class="st7" v:langID="1033"><v:paragraph/><v:tabList/>header.css</text>		</g>
		<g id="shape233-383" v:mID="233" v:groupContext="shape" transform="translate(151.654,-318.047)">
			<title>Line.233</title>
			<path d="M0 807.87 L14.17 807.87" class="st5"/>
		</g>
		<g id="shape234-387" v:mID="234" v:groupContext="shape" transform="translate(164.409,-303.307)">
			<title>Text (14).234</title>
			<desc>header.deps.js</desc>
			<v:textBlock v:margins="rect(4,4,4,4)" v:tabSpace="42.5197"/>
			<v:textRect cx="73.9843" cy="793.701" width="147.97" height="28.3465"/>
			<rect x="0" y="779.528" width="147.969" height="28.3465" class="st2"/>
			<text x="4" y="798.5" class="st7" v:langID="1033"><v:paragraph/><v:tabList/>header.deps.js</text>		</g>
		<g id="shape235-391" v:mID="235" v:groupContext="shape" transform="translate(959.528,572.598) rotate(90)">
			<title>Line.235</title>
			<path d="M0 807.87 L35.72 807.87" class="st5"/>
		</g>
		<g id="shape236-395" v:mID="236" v:groupContext="shape" transform="translate(125.362,-242.079)">
			<title>Line.236</title>
			<path d="M0 807.87 L14.17 807.87" class="st5"/>
		</g>
		<g id="shape237-399" v:mID="237" v:groupContext="shape" transform="translate(123.307,-228.472)">
			<title>Text (14).237</title>
			<desc>page/</desc>
			<v:textBlock v:margins="rect(4,4,4,4)" v:tabSpace="42.5197"/>
			<v:textRect cx="42.5197" cy="793.701" width="85.04" height="28.3465"/>
			<rect x="0" y="779.528" width="85.0394" height="28.3465" class="st2"/>
			<text x="21.18" y="798.5" class="st7" v:langID="1033"><v:paragraph v:horizAlign="1"/><v:tabList/>page/</text>		</g>
		<g id="shape238-403" v:mID="238" v:groupContext="shape" transform="translate(164.126,-213.732)">
			<title>Text (14).238</title>
			<desc>page.bemhtml.js</desc>
			<v:textBlock v:margins="rect(4,4,4,4)" v:tabSpace="42.5197"/>
			<v:textRect cx="65.374" cy="793.701" width="130.75" height="28.3465"/>
			<rect x="0" y="779.528" width="130.748" height="28.3465" class="st2"/>
			<text x="4.43" y="798.5" class="st7" v:langID="1033"><v:paragraph v:horizAlign="1"/><v:tabList/>page.bemhtml.js</text>		</g>
		<g id="shape239-407" v:mID="239" v:groupContext="shape" transform="translate(151.654,-227.906)">
			<title>Line.239</title>
			<path d="M0 807.87 L14.17 807.87" class="st5"/>
		</g>
		<g id="shape240-411" v:mID="240" v:groupContext="shape" transform="translate(151.654,-214.299)">
			<title>Line.240</title>
			<path d="M0 807.87 L14.17 807.87" class="st5"/>
		</g>
		<g id="shape241-415" v:mID="241" v:groupContext="shape" transform="translate(934.016,555.024) rotate(90)">
			<title>Line.241</title>
			<path d="M0 807.87 L11.34 807.87" class="st5"/>
		</g>
		<g id="shape242-419" v:mID="242" v:groupContext="shape" transform="translate(160.157,-199.559)">
			<title>Text (14).242</title>
			<desc>page.bemtree.js</desc>
			<v:textBlock v:margins="rect(4,4,4,4)" v:tabSpace="42.5197"/>
			<v:textRect cx="67.1811" cy="793.701" width="134.37" height="28.3465"/>
			<rect x="0" y="779.528" width="134.362" height="28.3465" class="st2"/>
			<text x="8.39" y="798.5" class="st7" v:langID="1033"><v:paragraph v:horizAlign="1"/><v:tabList/>page.bemtree.js</text>		</g>
		<g id="shape243-423" v:mID="243" v:groupContext="shape" transform="translate(159.307,-186.52)">
			<title>Text (14).243</title>
			<desc>page.deps.js</desc>
			<v:textBlock v:margins="rect(4,4,4,4)" v:tabSpace="42.5197"/>
			<v:textRect cx="55.2756" cy="793.701" width="110.56" height="28.3465"/>
			<rect x="0" y="779.528" width="110.551" height="28.3465" class="st2"/>
			<text x="9.27" y="798.5" class="st7" v:langID="1033"><v:paragraph v:horizAlign="1"/><v:tabList/>page.deps.js</text>		</g>
		<g id="shape244-427" v:mID="244" v:groupContext="shape" transform="translate(959.811,638.362) rotate(90)">
			<title>Line.244</title>
			<path d="M0 807.87 L19.84 807.87" class="st5"/>
		</g>
		<g id="shape245-431" v:mID="245" v:groupContext="shape" transform="translate(125.929,-178.583)">
			<title>Line.245</title>
			<path d="M0 807.87 L14.17 807.87" class="st5"/>
		</g>
		<g id="shape246-435" v:mID="246" v:groupContext="shape" transform="translate(119.906,-164.409)">
			<title>Text (14).246</title>
			<desc>root/</desc>
			<v:textBlock v:margins="rect(4,4,4,4)" v:tabSpace="42.5197"/>
			<v:textRect cx="42.5197" cy="793.701" width="85.04" height="28.3465"/>
			<rect x="0" y="779.528" width="85.0394" height="28.3465" class="st2"/>
			<text x="24.55" y="798.5" class="st7" v:langID="1033"><v:paragraph v:horizAlign="1"/><v:tabList/>root/</text>		</g>
		<g id="shape247-439" v:mID="247" v:groupContext="shape" transform="translate(158.457,-150.236)">
			<title>Text (14).247</title>
			<desc>root.bemtree.js</desc>
			<v:textBlock v:margins="rect(4,4,4,4)" v:tabSpace="42.5197"/>
			<v:textRect cx="65.374" cy="793.701" width="130.75" height="28.3465"/>
			<rect x="0" y="779.528" width="130.748" height="28.3465" class="st2"/>
			<text x="9.95" y="798.5" class="st7" v:langID="1033"><v:paragraph v:horizAlign="1"/><v:tabList/>root.bemtree.js</text>		</g>
		<g id="shape248-443" v:mID="248" v:groupContext="shape" transform="translate(151.937,-164.409)">
			<title>Line.248</title>
			<path d="M0 807.87 L14.17 807.87" class="st5"/>
		</g>
		<g id="shape249-447" v:mID="249" v:groupContext="shape" transform="translate(151.937,-150.236)">
			<title>Line.249</title>
			<path d="M0 807.87 L14.17 807.87" class="st5"/>
		</g>
		<g id="shape250-451" v:mID="250" v:groupContext="shape" transform="translate(934.583,618.52) rotate(90)">
			<title>Line.250</title>
			<path d="M0 807.87 L11.34 807.87" class="st5"/>
		</g>
		<g id="shape251-455" v:mID="251" v:groupContext="shape" transform="translate(155.906,-136.063)">
			<title>Text (14).251</title>
			<desc>root.deps.js</desc>
			<v:textBlock v:margins="rect(4,4,4,4)" v:tabSpace="42.5197"/>
			<v:textRect cx="55.2756" cy="793.701" width="110.56" height="28.3465"/>
			<rect x="0" y="779.528" width="110.551" height="28.3465" class="st2"/>
			<text x="12.64" y="798.5" class="st7" v:langID="1033"><v:paragraph v:horizAlign="1"/><v:tabList/>root.deps.js</text>		</g>
		<g id="shape252-459" v:mID="252" v:groupContext="shape" transform="translate(151.087,-200.126)">
			<title>Line.252</title>
			<path d="M0 807.87 L14.17 807.87" class="st5"/>
		</g>
		<g id="shape253-463" v:mID="253" v:groupContext="shape" transform="translate(280.913,-294.803)">
			<title>Basic Arrow 1.253</title>
			<path d="M0 807.87 L51.02 807.87" class="st8"/>
		</g>
		<g id="shape254-469" v:mID="254" v:groupContext="shape" transform="translate(280.913,-242.079)">
			<title>Basic Arrow 1.254</title>
			<path d="M0 807.87 L51.02 807.87" class="st8"/>
		</g>
	</g>
</svg>
