<?xml version="1.0" encoding="UTF-8" standalone="no"?>
<!DOCTYPE svg PUBLIC "-//W3C//DTD SVG 1.1//EN" "http://www.w3.org/Graphics/SVG/1.1/DTD/svg11.dtd">
<!-- Generated by Microsoft Visio, SVG Export bem-static.svg new-page -->
<svg xmlns="http://www.w3.org/2000/svg" xmlns:xlink="http://www.w3.org/1999/xlink" xmlns:ev="http://www.w3.org/2001/xml-events"
		xmlns:v="http://schemas.microsoft.com/visio/2003/SVGExtensions/" width="11.811in" height="7.28346in"
		viewBox="0 0 850.394 524.409" xml:space="preserve" color-interpolation-filters="sRGB" class="st27">
	<v:documentProperties v:langID="1049" v:metric="true" v:viewMarkup="false">
		<v:userDefs>
			<v:ud v:nameU="msvNoAutoConnect" v:val="VT0(1):26"/>
			<v:ud v:nameU="msvConvertTheme"/>
			<v:ud v:nameU="DocShowPicture" v:prompt="" v:val="VT0(1):26"/>
			<v:ud v:nameU="visTLShowProps" v:prompt="" v:val="VT0(0):26"/>
		</v:userDefs>
	</v:documentProperties>

	<style type="text/css">
	<![CDATA[
		.st1 {fill:#ffcc00;stroke:none;stroke-linecap:round;stroke-linejoin:round;stroke-width:0.72}
		.st2 {fill:none;marker-end:url(#mrkr13-6);stroke:none;stroke-linecap:butt;stroke-width:1.5}
		.st3 {fill:#ffcc00;fill-opacity:1;stroke:#ffcc00;stroke-opacity:1;stroke-width:0.37313432835821}
		.st4 {fill:#000000;font-family:Yandex Sans Text Light;font-size:1.33333em;font-weight:bold}
		.st5 {stroke:#000000;stroke-linecap:butt;stroke-width:1.5}
		.st6 {fill:#000000;font-family:Yandex Sans Text Light;font-size:1.33333em}
		.st7 {fill:#ff6666;font-family:Yandex Sans Text Light;font-size:1.33333em}
		.st8 {marker-end:url(#mrkr3-131);stroke:#000000;stroke-linecap:butt;stroke-width:1.5}
		.st9 {fill:#000000;fill-opacity:1;stroke:#000000;stroke-opacity:1;stroke-width:0.45454545454545}
		.st10 {font-size:1em}
		.st11 {stroke:#000000;stroke-linecap:round;stroke-linejoin:round;stroke-width:1.5}
		.st12 {fill:#002060;font-family:Yandex Sans Text Light;font-size:1.33333em}
		.st13 {fill:#000000;font-size:1em}
		.st14 {fill:#000000;fill-opacity:0.047;stroke:#000000;stroke-linecap:butt;stroke-opacity:0.2;stroke-width:0.75}
		.st15 {fill:none;stroke:#ffffff;stroke-linecap:butt;stroke-width:0.75}
		.st16 {fill:#ffffff;stroke:none;stroke-linecap:butt;stroke-width:0.75}
		.st17 {fill:#ffffff;stroke:#000000;stroke-linecap:butt;stroke-opacity:0.2;stroke-width:1.5}
		.st18 {fill:none;stroke:none;stroke-linecap:butt;stroke-width:0.75}
		.st19 {fill:#000000;font-family:Calibri;font-size:1.33333em;opacity:0.196078}
		.st20 {fill:none;stroke:none;stroke-linecap:butt;stroke-width:1.5}
		.st21 {fill:#000000;font-family:Calibri;font-size:1.16666em}
		.st22 {fill:#ffffff;stroke:#ffdb47;stroke-linecap:butt;stroke-width:3}
		.st23 {fill:#000000;font-family:Calibri;font-size:1.33333em}
		.st24 {stroke:#c4c4c4;stroke-linecap:butt;stroke-width:1.5}
		.st25 {fill:#000000;stroke:none;stroke-linecap:butt;stroke-width:0.75}
		.st26 {fill:#ff2500;stroke:none;stroke-linecap:butt;stroke-width:0.75}
		.st27 {fill:none;fill-rule:evenodd;font-size:12px;overflow:visible;stroke-linecap:square;stroke-miterlimit:3}
	]]>
	</style>

	<defs id="Patterns_And_Gradients">
		<linearGradient id="grad0-11" x1="0" y1="0" x2="1" y2="0" gradientTransform="rotate(270 0.5 0.5)">
			<stop offset="0" stop-color="#f2f2f2" stop-opacity="1"/>
			<stop offset="1" stop-color="#ffffff" stop-opacity="1"/>
		</linearGradient>
		<linearGradient id="grad0-128" x1="0" y1="0" x2="1" y2="0" gradientTransform="rotate(270 0.5 0.5)">
			<stop offset="0" stop-color="#1e1e1e" stop-opacity="1"/>
			<stop offset="1" stop-color="#000000" stop-opacity="1"/>
		</linearGradient>
		<linearGradient id="grad0-328" x1="0" y1="0" x2="1" y2="0" gradientTransform="rotate(270 0.5 0.5)">
			<stop offset="0" stop-color="#d0d0d0" stop-opacity="1"/>
			<stop offset="1" stop-color="#bfbfbf" stop-opacity="1"/>
		</linearGradient>
	</defs>
	<defs id="Markers">
		<g id="lend13">
			<path d="M 3 1 L 0 0 L 3 -1 L 3 1 " style="stroke:none"/>
		</g>
		<marker id="mrkr13-6" class="st3" v:arrowType="13" v:arrowSize="2" v:setback="8.04" refX="-8.04" orient="auto"
				markerUnits="strokeWidth" overflow="visible">
			<use xlink:href="#lend13" transform="scale(-2.68,-2.68) "/>
		</marker>
		<g id="lend3">
			<path d="M 2 1 L 0 0 L 2 -1 " style="stroke-linecap:round;stroke-linejoin:round;fill:none"/>
		</g>
		<marker id="mrkr3-131" class="st9" v:arrowType="3" v:arrowSize="1" orient="auto" markerUnits="strokeWidth"
				overflow="visible">
			<use xlink:href="#lend3" transform="scale(-2.2,-2.2) "/>
		</marker>
	</defs>
	<g v:mID="4" v:index="2" v:groupContext="foregroundPage">
		<title>scheme1</title>
		<v:pageProperties v:drawingScale="0.0393701" v:pageScale="0.0393701" v:drawingUnits="24" v:shadowOffsetX="8.50394"
				v:shadowOffsetY="-8.50394"/>
		<v:layer v:name="Flowchart" v:index="0"/>
		<v:layer v:name="Connector" v:index="1"/>
		<g id="shape1-1" v:mID="1" v:groupContext="shape" transform="translate(216.622,-311.811)">
			<title>Горизонтальная линия выноски.540</title>
			<path d="M0 524.41 L134.31 524.41 L0 524.41 Z" class="st1"/>
		</g>
		<g id="shape4-3" v:mID="4" v:groupContext="shape" transform="translate(23.5276,-311.811)">
			<title>Text (14).543</title>
			<desc>Source files</desc>
			<v:textBlock v:margins="rect(4,4,4,4)" v:tabSpace="42.5197"/>
			<v:textRect cx="66.6142" cy="510.236" width="133.23" height="28.3465"/>
			<rect x="0" y="496.063" width="133.228" height="28.3465" class="st2"/>
			<text x="25.49" y="515.04" class="st4" v:langID="1033"><v:paragraph v:horizAlign="1"/><v:tabList/>Source files</text>		</g>
		<g id="shape5-8" v:mID="5" v:groupContext="shape" transform="translate(676.63,286.299) rotate(90)">
			<title>Line.544</title>
			<path d="M0 524.41 L62.93 524.41" class="st5"/>
		</g>
		<g id="shape6-13" v:mID="6" v:groupContext="shape" transform="translate(99.4961,-249.449)">
			<title>Text (14).543.6</title>
			<desc>blocks/</desc>
			<v:textBlock v:margins="rect(4,4,4,4)" v:tabSpace="42.5197"/>
			<v:textRect cx="42.5197" cy="510.236" width="85.04" height="28.3465"/>
			<rect x="0" y="496.063" width="85.0394" height="28.3465" class="st2"/>
			<text x="16.42" y="515.04" class="st6" v:langID="1033"><v:paragraph v:horizAlign="1"/><v:tabList/>blocks/</text>		</g>
		<g id="shape7-17" v:mID="7" v:groupContext="shape" transform="translate(125.575,-246.614)">
			<title>Line.544.7</title>
			<path d="M0 524.41 L14.17 524.41" class="st5"/>
		</g>
		<g id="shape8-21" v:mID="8" v:groupContext="shape" transform="translate(130.252,-232.441)">
			<title>Text (14).543.8</title>
			<desc>header/</desc>
			<v:textBlock v:margins="rect(4,4,4,4)" v:tabSpace="42.5197"/>
			<v:textRect cx="42.5197" cy="510.236" width="85.04" height="28.3465"/>
			<rect x="0" y="496.063" width="85.0394" height="28.3465" class="st2"/>
			<text x="14.26" y="515.04" class="st7" v:langID="1033"><v:paragraph v:horizAlign="1"/><v:tabList/>header/</text>		</g>
		<g id="shape10-25" v:mID="10" v:groupContext="shape" transform="translate(152.22,-218.268)">
			<title>Text (14).543.10</title>
			<desc>__logo/</desc>
			<v:textBlock v:margins="rect(4,4,4,4)" v:tabSpace="42.5197"/>
			<v:textRect cx="42.5197" cy="510.236" width="85.04" height="28.3465"/>
			<rect x="0" y="496.063" width="85.0394" height="28.3465" class="st2"/>
			<text x="17.57" y="515.04" class="st7" v:langID="1033"><v:paragraph v:horizAlign="1"/><v:tabList/>__logo/</text>		</g>
		<g id="shape11-29" v:mID="11" v:groupContext="shape" transform="translate(152.22,-232.441)">
			<title>Line.11</title>
			<path d="M0 524.41 L14.17 524.41" class="st5"/>
		</g>
		<g id="shape12-33" v:mID="12" v:groupContext="shape" transform="translate(152.22,-218.268)">
			<title>Line.12</title>
			<path d="M0 524.41 L14.17 524.41" class="st5"/>
		</g>
		<g id="shape15-37" v:mID="15" v:groupContext="shape" transform="translate(152.22,-204.094)">
			<title>Line.15</title>
			<path d="M0 524.41 L14.17 524.41" class="st5"/>
		</g>
		<g id="shape16-41" v:mID="16" v:groupContext="shape" transform="translate(152.22,-189.921)">
			<title>Line.16</title>
			<path d="M0 524.41 L14.17 524.41" class="st5"/>
		</g>
		<g id="shape17-45" v:mID="17" v:groupContext="shape" transform="translate(34.8661,-277.795)">
			<title>Text (14).17</title>
			<desc>project/</desc>
			<v:textBlock v:margins="rect(4,4,4,4)" v:tabSpace="42.5197"/>
			<v:textRect cx="42.5197" cy="510.236" width="85.04" height="28.3465"/>
			<rect x="0" y="496.063" width="85.0394" height="28.3465" class="st2"/>
			<text x="14.14" y="515.04" class="st6" v:langID="1033"><v:paragraph v:horizAlign="1"/><v:tabList/>project/</text>		</g>
		<g id="shape18-49" v:mID="18" v:groupContext="shape" transform="translate(91.5591,-262.205)">
			<title>Line.544.18</title>
			<path d="M0 524.41 L19.84 524.41" class="st5"/>
		</g>
		<g id="shape19-53" v:mID="19" v:groupContext="shape" transform="translate(616.677,250.866) rotate(90)">
			<title>Line.544.19</title>
			<path d="M0 524.41 L11.34 524.41" class="st5"/>
		</g>
		<g id="shape20-57" v:mID="20" v:groupContext="shape" transform="translate(94.3937,-106.299)">
			<title>Line.20</title>
			<path d="M0 524.41 L19.84 524.41" class="st5"/>
		</g>
		<g id="shape21-61" v:mID="21" v:groupContext="shape" transform="translate(619.512,406.772) rotate(90)">
			<title>Line.21</title>
			<path d="M0 524.41 L11.34 524.41" class="st5"/>
		</g>
		<g id="shape22-65" v:mID="22" v:groupContext="shape" transform="translate(87.5906,-92.126)">
			<title>Text (14).22</title>
			<desc>lib/</desc>
			<v:textBlock v:margins="rect(4,4,4,4)" v:tabSpace="42.5197"/>
			<v:textRect cx="42.5197" cy="510.236" width="85.04" height="28.3465"/>
			<rect x="0" y="496.063" width="85.0394" height="28.3465" class="st2"/>
			<text x="31.05" y="515.04" class="st6" v:langID="1033"><v:paragraph v:horizAlign="1"/><v:tabList/>lib/</text>		</g>
		<g id="shape23-69" v:mID="23" v:groupContext="shape" transform="translate(126.283,-90.7087)">
			<title>Line.23</title>
			<path d="M0 524.41 L14.17 524.41" class="st5"/>
		</g>
		<g id="shape24-73" v:mID="24" v:groupContext="shape" transform="translate(137.48,-56.6929)">
			<title>Text (14).24</title>
			<desc>input/</desc>
			<v:textBlock v:margins="rect(4,4,4,4)" v:tabSpace="42.5197"/>
			<v:textRect cx="28.3465" cy="518.031" width="56.7" height="12.7559"/>
			<rect x="0" y="511.654" width="56.6929" height="12.7559" class="st2"/>
			<text x="6.55" y="522.83" class="st7" v:langID="1033"><v:paragraph v:horizAlign="1"/><v:tabList/>input/</text>		</g>
		<g id="shape25-77" v:mID="25" v:groupContext="shape" transform="translate(114.945,-48.189)">
			<title>Text (14).25</title>
			<rect x="0" y="496.063" width="85.0394" height="28.3465" class="st2"/>
		</g>
		<g id="shape26-80" v:mID="26" v:groupContext="shape" transform="translate(126.283,-76.5354)">
			<title>Line.26</title>
			<path d="M0 524.41 L14.17 524.41" class="st5"/>
		</g>
		<g id="shape27-84" v:mID="27" v:groupContext="shape" transform="translate(126.283,-62.3622)">
			<title>Line.27</title>
			<path d="M0 524.41 L14.17 524.41" class="st5"/>
		</g>
		<g id="shape28-88" v:mID="28" v:groupContext="shape" transform="translate(136.488,-42.5197)">
			<title>Text (14).28</title>
			<desc>icon/</desc>
			<v:textBlock v:margins="rect(4,4,4,4)" v:tabSpace="42.5197"/>
			<v:textRect cx="25.937" cy="518.031" width="51.88" height="12.7559"/>
			<rect x="0" y="511.654" width="51.874" height="12.7559" class="st2"/>
			<text x="7.86" y="522.83" class="st6" v:langID="1033"><v:paragraph v:horizAlign="1"/><v:tabList/>icon/</text>		</g>
		<g id="shape29-92" v:mID="29" v:groupContext="shape" transform="translate(135.213,-70.8661)">
			<title>Text (14).29</title>
			<desc>control-group/</desc>
			<v:textBlock v:margins="rect(4,4,4,4)" v:tabSpace="42.5197"/>
			<v:textRect cx="62.6457" cy="518.031" width="125.3" height="12.7559"/>
			<rect x="0" y="511.654" width="125.291" height="12.7559" class="st2"/>
			<text x="9.53" y="522.83" class="st7" v:langID="1033"><v:paragraph v:horizAlign="1"/><v:tabList/>control-group/</text>		</g>
		<g id="shape30-96" v:mID="30" v:groupContext="shape" transform="translate(126.283,-48.189)">
			<title>Line.30</title>
			<path d="M0 524.41 L14.17 524.41" class="st5"/>
		</g>
		<g id="shape31-100" v:mID="31" v:groupContext="shape" transform="translate(126.283,-34.0157)">
			<title>Line.31</title>
			<path d="M0 524.41 L14.17 524.41" class="st5"/>
		</g>
		<g id="shape32-104" v:mID="32" v:groupContext="shape" transform="translate(128.976,-85.0394)">
			<title>Text (14).32</title>
			<desc>button/</desc>
			<v:textBlock v:margins="rect(4,4,4,4)" v:tabSpace="42.5197"/>
			<v:textRect cx="42.5197" cy="517.323" width="85.04" height="14.1732"/>
			<rect x="0" y="510.236" width="85.0394" height="14.1732" class="st2"/>
			<text x="15.01" y="522.12" class="st7" v:langID="1033"><v:paragraph v:horizAlign="1"/><v:tabList/>button/</text>		</g>
		<g id="shape33-108" v:mID="33" v:groupContext="shape" transform="translate(651.118,427.181) rotate(90)">
			<title>Line.33</title>
			<path d="M0 524.41 L77.95 524.41" class="st5"/>
		</g>
		<g id="shape34-112" v:mID="34" v:groupContext="shape" transform="translate(132.945,-28.3465)">
			<title>Text (14).543.34</title>
			<desc>image/</desc>
			<v:textBlock v:margins="rect(4,4,4,4)" v:tabSpace="42.5197"/>
			<v:textRect cx="36.8504" cy="517.323" width="73.71" height="14.1732"/>
			<rect x="0" y="510.236" width="73.7008" height="14.1732" class="st2"/>
			<text x="11.48" y="522.12" class="st7" v:langID="1033"><v:paragraph v:horizAlign="1"/><v:tabList/>image/</text>		</g>
		<g id="shape35-116" v:mID="35" v:groupContext="shape" transform="translate(128.409,-14.1732)">
			<title>Text (14).543.35</title>
			<desc>popup/</desc>
			<v:textBlock v:margins="rect(4,4,4,4)" v:tabSpace="42.5197"/>
			<v:textRect cx="42.5197" cy="517.323" width="85.04" height="14.1732"/>
			<rect x="0" y="510.236" width="85.0394" height="14.1732" class="st2"/>
			<text x="15.57" y="522.12" class="st6" v:langID="1033"><v:paragraph v:horizAlign="1"/><v:tabList/>popup/</text>		</g>
		<g id="shape36-120" v:mID="36" v:groupContext="shape" transform="translate(126.142,-19.8425)">
			<title>Line.36</title>
			<path d="M0 524.41 L14.17 524.41" class="st5"/>
		</g>
		<g id="shape37-124" v:mID="37" v:groupContext="shape" transform="translate(280.913,-246.614)">
			<title>Basic Arrow 1.545</title>
			<path d="M0 524.41 L51.02 524.41" class="st8"/>
		</g>
		<g id="shape39-132" v:mID="39" v:groupContext="shape" transform="translate(280.913,-155.339)">
			<title>Basic Arrow 1.39</title>
			<path d="M0 524.41 L51.02 524.41" class="st8"/>
		</g>
		<g id="shape40-138" v:mID="40" v:groupContext="shape" transform="translate(280.913,-62.3622)">
			<title>Basic Arrow 1.40</title>
			<path d="M0 524.41 L51.02 524.41" class="st8"/>
		</g>
		<g id="shape41-144" v:mID="41" v:groupContext="shape" transform="translate(280.913,-76.5354)">
			<title>Basic Arrow 1.41</title>
			<path d="M0 524.41 L51.02 524.41" class="st8"/>
		</g>
		<g id="shape42-150" v:mID="42" v:groupContext="shape" transform="translate(280.913,-34.0157)">
			<title>Basic Arrow 1.42</title>
			<path d="M0 524.41 L51.02 524.41" class="st8"/>
		</g>
		<g id="shape44-156" v:mID="44" v:groupContext="shape" transform="translate(341.008,-481.89)">
			<title>Text Bold (14).546</title>
			<desc>BEMJSON</desc>
			<v:textBlock v:margins="rect(4,4,4,4)" v:tabSpace="42.5197"/>
			<v:textRect cx="48.189" cy="510.236" width="96.38" height="28.3465"/>
			<rect x="0" y="496.063" width="96.378" height="28.3465" class="st2"/>
			<text x="11.97" y="515.04" class="st4" v:langID="1033"><v:paragraph v:horizAlign="1"/><v:tabList/>BEMJSON</text>		</g>
		<g id="shape96-160" v:mID="96" v:groupContext="shape" transform="translate(227.622,-422.735)">
			<title>Text (14).543.96</title>
			<desc>header, header__logo, header__nameplate, form, header__search...</desc>
			<v:textBlock v:margins="rect(4,4,4,4)" v:tabSpace="42.5197"/>
			<v:textRect cx="155.906" cy="501.919" width="311.82" height="44.9814"/>
			<rect x="0" y="479.428" width="311.811" height="44.9814" class="st2"/>
			<text x="4" y="487.52" class="st7" v:langID="1033"><v:paragraph/><v:tabList/>header, header__logo, header__nameplate, <tspan
						x="4" dy="1.2em" class="st10">form</tspan>, header__search-input, header__side, <tspan x="4" dy="1.2em"
						class="st10">control</tspan>-group, button, input</text>		</g>
		<g id="group115-166" transform="translate(-247.465,115.372) rotate(-90)" v:mID="115" v:groupContext="group">
			<v:userDefs>
				<v:ud v:nameU="visVersion" v:val="VT0(12):26"/>
			</v:userDefs>
			<title>Comment.555</title>
			<g id="shape116-167" v:mID="116" v:groupContext="shape" transform="translate(36.0017,-63.4961)">
				<title>Sheet.116</title>
				<path d="M14.17 524.41 L0 524.41" class="st11"/>
			</g>
			<g id="shape117-170" v:mID="117" v:groupContext="shape" transform="translate(524.409,460.913) rotate(90)">
				<title>Sheet.117</title>
				<v:textBlock v:margins="rect(4,4,4,4)" v:tabSpace="42.5197"/>
				<path d="M5.67 452.41 L2.83 452.41 A2.83465 2.83465 -180 0 0 0 455.24 L0 521.57 A2.83465 2.83465 -180 0 0 2.83 524.41
							 L5.67 524.41" class="st11"/>
			</g>
		</g>
		<g id="group118-173" transform="translate(29.1297,115.185) rotate(-90)" v:mID="118" v:groupContext="group">
			<v:userDefs>
				<v:ud v:nameU="visVersion" v:val="VT0(12):26"/>
			</v:userDefs>
			<title>Comment.118</title>
			<g id="shape119-174" v:mID="119" v:groupContext="shape" transform="translate(40.0528,1048.8) rotate(179.557)">
				<title>Sheet.119</title>
				<path d="M8.69 524.41 L0 524.41" class="st11"/>
			</g>
			<g id="shape120-177" v:mID="120" v:groupContext="shape" transform="translate(524.409,524.409) rotate(90) scale(-1,1)">
				<title>Sheet.120</title>
				<v:textBlock v:margins="rect(4,4,4,4)" v:tabSpace="42.5197"/>
				<path d="M6.87 452.41 L3.44 452.41 A3.43514 3.43514 -180 0 0 0 455.84 L0 520.97 A3.43514 3.43514 -180 0 0 3.44 524.41
							 L6.87 524.41" class="st11"/>
			</g>
		</g>
		<g id="shape122-180" v:mID="122" v:groupContext="shape" transform="translate(913.606,212.598) rotate(90)">
			<title>Basic Arrow 1.122</title>
			<path d="M0 524.41 L42.52 524.41" class="st8"/>
		</g>
		<g id="shape125-186" v:mID="125" v:groupContext="shape" transform="translate(445.89,-247.803)">
			<title>Basic Arrow 1.125</title>
			<path d="M0 524.41 L51.02 524.41" class="st8"/>
		</g>
		<g id="shape126-192" v:mID="126" v:groupContext="shape" transform="translate(505.417,-320.315)">
			<title>Text (14).126</title>
			<desc>Bundles</desc>
			<v:textBlock v:margins="rect(4,4,4,4)" v:tabSpace="42.5197"/>
			<v:textRect cx="66.6142" cy="518.74" width="133.23" height="11.3386"/>
			<rect x="0" y="513.071" width="133.228" height="11.3386" class="st2"/>
			<text x="37.62" y="523.54" class="st4" v:langID="1033"><v:paragraph v:horizAlign="1"/><v:tabList/>Bundles</text>		</g>
		<g id="shape129-196" v:mID="129" v:groupContext="shape" transform="translate(516.756,-206.655)">
			<title>Text (14).129</title>
			<desc>“bundle.css” “bundle.js” “bundle.bemhtml.js” “bundle.deps.js”...</desc>
			<v:textBlock v:margins="rect(4,4,4,4)" v:tabSpace="42.5197"/>
			<v:textRect cx="162.992" cy="510.236" width="325.99" height="28.3465"/>
			<rect x="0" y="496.063" width="325.984" height="28.3465" class="st2"/>
			<text x="7.14" y="447.84" class="st12" v:langID="1033"><v:paragraph/><v:tabList/>“bundle.css”<v:newlineChar/><tspan
						x="4" dy="1.2em" class="st13"> </tspan>“bundle.js”<v:newlineChar/><tspan x="4" dy="1.2em" class="st13"> </tspan>“bundle.bemhtml.js”<v:newlineChar/><tspan
						x="4" dy="1.2em" class="st13"> </tspan>“bundle.deps.js”<v:newlineChar/><tspan x="4" dy="1.2em" class="st13"> </tspan>“bundle.html”<v:newlineChar/><tspan
						x="4" dy="1.2em" class="st13">   </tspan><tspan class="st13">...</tspan><v:newlineChar/><v:newlineChar/></text>		</g>
		<g id="group130-206" transform="translate(346.677,-28.3465)" v:mID="130" v:groupContext="group">
			<title>Rectangle-22</title>
			<g id="shape131-207" v:mID="131" v:groupContext="shape">
				<title>path-3</title>
				<path d="M0 521.45 A2.55124 2.95796 -180 0 0 2.55 524.41 L82.49 524.41 A2.55124 2.95796 -180 0 0 85.04 521.45 L85.04
							 300.6 A2.55124 2.95796 -180 0 0 82.49 297.64 L2.55 297.64 A2.55124 2.95796 -180 0 0 -0 300.6 L0 521.45
							 Z" class="st14"/>
			</g>
			<g id="shape132-209" v:mID="132" v:groupContext="shape">
				<title>Sheet.132</title>
				<path d="M0 521.45 A2.55124 2.95796 -180 0 0 2.55 524.41 L82.49 524.41 A2.55124 2.95796 -180 0 0 85.04 521.45 L85.04
							 300.6 A2.55124 2.95796 -180 0 0 82.49 297.64 L2.55 297.64 A2.55124 2.95796 -180 0 0 -0 300.6 L0 521.45
							 Z" class="st15"/>
			</g>
		</g>
		<g id="shape133-211" v:mID="133" v:groupContext="shape" transform="translate(346.677,-127.559)">
			<title>Text Bold (14).546.133</title>
			<desc>Build</desc>
			<v:textBlock v:margins="rect(4,4,4,4)" v:tabSpace="42.5197"/>
			<v:textRect cx="42.5197" cy="510.236" width="85.04" height="28.3465"/>
			<rect x="0" y="496.063" width="85.0394" height="28.3465" class="st2"/>
			<text x="24.58" y="515.04" class="st4" v:langID="1033"><v:paragraph v:horizAlign="1"/><v:tabList/>Build</text>		</g>
		<g id="shape134-215" v:mID="134" v:groupContext="shape" transform="translate(341.008,-325.984)">
			<title>Text Bold (14).134</title>
			<desc>Declaration (BEMDECL)</desc>
			<v:textBlock v:margins="rect(4,4,4,4)" v:tabSpace="42.5197"/>
			<v:textRect cx="48.189" cy="510.236" width="96.38" height="28.3465"/>
			<rect x="0" y="496.063" width="96.378" height="28.3465" class="st2"/>
			<text x="7.17" y="505.44" class="st4" v:langID="1033"><v:paragraph v:horizAlign="1"/><v:tabList/>Declaration <tspan
						x="6.99" dy="1.2em" class="st10">(</tspan>BEMDECL)</text>		</g>
		<g id="shape135-220" v:mID="135" v:groupContext="shape" transform="translate(913.606,113.386) rotate(90)">
			<title>Basic Arrow 1.135</title>
			<path d="M0 524.41 L42.52 524.41" class="st8"/>
		</g>
		<g id="shape136-226" v:mID="136" v:groupContext="shape" transform="translate(650.693,266.457) rotate(90)">
			<title>Line.136</title>
			<path d="M0 524.41 L11.34 524.41" class="st5"/>
		</g>
		<g id="shape137-230" v:mID="137" v:groupContext="shape" transform="translate(161.858,-204.094)">
			<title>Text (14).137</title>
			<desc>__nameplate/</desc>
			<v:textBlock v:margins="rect(4,4,4,4)" v:tabSpace="42.5197"/>
			<v:textRect cx="55.2756" cy="510.236" width="110.56" height="28.3465"/>
			<rect x="0" y="496.063" width="110.551" height="28.3465" class="st2"/>
			<text x="7.81" y="515.04" class="st7" v:langID="1033"><v:paragraph v:horizAlign="1"/><v:tabList/>__nameplate/</text>		</g>
		<g id="shape138-234" v:mID="138" v:groupContext="shape" transform="translate(161.858,-189.921)">
			<title>Text (14).138</title>
			<desc>__search-input/</desc>
			<v:textBlock v:margins="rect(4,4,4,4)" v:tabSpace="42.5197"/>
			<v:textRect cx="62.3622" cy="510.236" width="124.73" height="28.3465"/>
			<rect x="0" y="496.063" width="124.724" height="28.3465" class="st2"/>
			<text x="7.83" y="515.04" class="st7" v:langID="1033"><v:paragraph v:horizAlign="1"/><v:tabList/>__search-input/</text>		</g>
		<g id="shape139-238" v:mID="139" v:groupContext="shape" transform="translate(162.425,-175.748)">
			<title>Text (14).139</title>
			<desc>__side/</desc>
			<v:textBlock v:margins="rect(4,4,4,4)" v:tabSpace="42.5197"/>
			<v:textRect cx="31.1811" cy="510.236" width="62.37" height="28.3465"/>
			<rect x="0" y="496.063" width="62.3622" height="28.3465" class="st2"/>
			<text x="7.34" y="515.04" class="st7" v:langID="1033"><v:paragraph v:horizAlign="1"/><v:tabList/>__side/</text>		</g>
		<g id="shape140-242" v:mID="140" v:groupContext="shape" transform="translate(144.85,-159.874)">
			<title>Text (14).140</title>
			<desc>header.css</desc>
			<v:textBlock v:margins="rect(4,4,4,4)" v:tabSpace="42.5197"/>
			<v:textRect cx="62.3622" cy="510.236" width="124.73" height="28.3465"/>
			<rect x="0" y="496.063" width="124.724" height="28.3465" class="st2"/>
			<text x="23.47" y="515.04" class="st7" v:langID="1033"><v:paragraph v:horizAlign="1"/><v:tabList/>header.css</text>		</g>
		<g id="shape141-246" v:mID="141" v:groupContext="shape" transform="translate(152.22,-175.748)">
			<title>Line.141</title>
			<path d="M0 524.41 L14.17 524.41" class="st5"/>
		</g>
		<g id="shape142-250" v:mID="142" v:groupContext="shape" transform="translate(676.346,377.575) rotate(90)">
			<title>Line.142</title>
			<path d="M0 524.41 L19.84 524.41" class="st5"/>
		</g>
		<g id="shape143-254" v:mID="143" v:groupContext="shape" transform="translate(125.929,-155.906)">
			<title>Line.143</title>
			<path d="M0 524.41 L14.17 524.41" class="st5"/>
		</g>
		<g id="shape144-258" v:mID="144" v:groupContext="shape" transform="translate(120.472,-141.732)">
			<title>Text (14).144</title>
			<desc>logo/</desc>
			<v:textBlock v:margins="rect(4,4,4,4)" v:tabSpace="42.5197"/>
			<v:textRect cx="42.5197" cy="510.236" width="85.04" height="28.3465"/>
			<rect x="0" y="496.063" width="85.0394" height="28.3465" class="st2"/>
			<text x="23.58" y="515.04" class="st7" v:langID="1033"><v:paragraph v:horizAlign="1"/><v:tabList/>logo/</text>		</g>
		<g id="shape145-262" v:mID="145" v:groupContext="shape" transform="translate(161.114,-127.559)">
			<title>Text (14).145</title>
			<desc>logo.bemhtml.js</desc>
			<v:textBlock v:margins="rect(4,4,4,4)" v:tabSpace="42.5197"/>
			<v:textRect cx="65.374" cy="510.236" width="130.75" height="28.3465"/>
			<rect x="0" y="496.063" width="130.748" height="28.3465" class="st2"/>
			<text x="6.83" y="515.04" class="st7" v:langID="1033"><v:paragraph v:horizAlign="1"/><v:tabList/>logo.bemhtml.js</text>		</g>
		<g id="shape146-266" v:mID="146" v:groupContext="shape" transform="translate(151.937,-141.732)">
			<title>Line.146</title>
			<path d="M0 524.41 L14.17 524.41" class="st5"/>
		</g>
		<g id="shape147-270" v:mID="147" v:groupContext="shape" transform="translate(151.937,-127.559)">
			<title>Line.147</title>
			<path d="M0 524.41 L14.17 524.41" class="st5"/>
		</g>
		<g id="shape150-274" v:mID="150" v:groupContext="shape" transform="translate(651.118,357.732) rotate(90)">
			<title>Line.150</title>
			<path d="M0 524.41 L11.34 524.41" class="st5"/>
		</g>
		<g id="shape151-278" v:mID="151" v:groupContext="shape" transform="translate(156.189,-113.386)">
			<title>Text (14).151</title>
			<desc>logo.deps.js</desc>
			<v:textBlock v:margins="rect(4,4,4,4)" v:tabSpace="42.5197"/>
			<v:textRect cx="55.2756" cy="510.236" width="110.56" height="28.3465"/>
			<rect x="0" y="496.063" width="110.551" height="28.3465" class="st2"/>
			<text x="11.67" y="515.04" class="st7" v:langID="1033"><v:paragraph v:horizAlign="1"/><v:tabList/>logo.deps.js</text>		</g>
		<g id="shape155-282" v:mID="155" v:groupContext="shape" transform="translate(280.913,-90.7087)">
			<title>Basic Arrow 1.155</title>
			<path d="M0 524.41 L51.02 524.41" class="st8"/>
		</g>
		<g id="shape160-288" v:mID="160" v:groupContext="shape" transform="translate(1097.86,354.331) rotate(90)">
			<title>Basic Arrow 1.160</title>
			<path d="M0 524.41 L42.52 524.41" class="st8"/>
		</g>
		<g id="group180-294" transform="translate(431.717,6.54173)" v:mID="180" v:groupContext="group">
			<title>Group</title>
			<g id="group193-295" transform="translate(24.5804,-56.6929)" v:mID="193" v:groupContext="group">
				<title>Header-Copy-3</title>
				<g id="group194-296" transform="translate(153.692,0.544882)" v:mID="194" v:groupContext="group">
					<title>form</title>
					<g id="group195-297" v:mID="195" v:groupContext="group">
						<title>input</title>
						<g id="group196-298" v:mID="196" v:groupContext="group">
							<title>Rectangle-12</title>
							<g id="shape197-299" v:mID="197" v:groupContext="shape">
								<title>path-1</title>
								<path d="M0 522.02 A2.91889 2.39179 -180 0 0 2.92 524.41 L196.53 524.41 A2.91889 2.39179 -180 0 0
											 199.45 522.02 L199.45 501.29 A2.91889 2.39179 -180 0 0 196.53 498.9 L2.92 498.9 A2.91889
											 2.39179 -180 0 0 -0 501.29 L0 522.02 Z" class="st16"/>
							</g>
							<g id="shape198-301" v:mID="198" v:groupContext="shape">
								<title>Sheet.198</title>
								<path d="M0 522.02 A2.91889 2.39179 -180 0 0 2.92 524.41 L196.53 524.41 A2.91889 2.39179 -180 0 0
											 199.45 522.02 L199.45 501.29 A2.91889 2.39179 -180 0 0 196.53 498.9 L2.92 498.9 A2.91889
											 2.39179 -180 0 0 -0 501.29 L0 522.02 Z" class="st16"/>
							</g>
							<g id="shape199-303" v:mID="199" v:groupContext="shape">
								<title>Sheet.199</title>
								<path d="M0 522.02 A2.91889 2.39179 -180 0 0 2.92 524.41 L196.53 524.41 A2.91889 2.39179 -180 0 0
											 199.45 522.02 L199.45 501.29 A2.91889 2.39179 -180 0 0 196.53 498.9 L2.92 498.9 A2.91889
											 2.39179 -180 0 0 -0 501.29 L0 522.02 Z" class="st17"/>
							</g>
						</g>
						<g id="shape200-305" v:mID="200" v:groupContext="shape" transform="translate(29.1883,-5.97933)">
							<title>Track,-artist</title>
							<desc>Track, artist</desc>
							<v:textBlock v:margins="rect(0,0,0,0)" v:tabSpace="42.5197"/>
							<v:textRect cx="94.8619" cy="517.234" width="189.73" height="14.3504"/>
							<rect x="0" y="510.059" width="189.724" height="14.3504" class="st18"/>
							<text x="0" y="522.03" class="st19" v:langID="1049"><v:paragraph/><v:tabList/>Track, artist</text>						</g>
					</g>
					<g id="group201-308" transform="translate(129.492,0)" v:mID="201" v:groupContext="group">
						<title>button</title>
						<g id="group202-309" v:mID="202" v:groupContext="group">
							<title>Rectangle-12</title>
							<g id="shape203-310" v:mID="203" v:groupContext="shape">
								<title>path-4</title>
								<rect x="0" y="498.898" width="70.0519" height="25.5118" class="st18"/>
							</g>
							<g id="shape204-312" v:mID="204" v:groupContext="shape">
								<title>Sheet.204</title>
								<rect x="0" y="498.898" width="70.0519" height="25.5118" class="st18"/>
							</g>
							<g id="shape205-314" v:mID="205" v:groupContext="shape">
								<title>Sheet.205</title>
								<rect x="0" y="498.898" width="70.0519" height="25.5118" class="st20"/>
							</g>
						</g>
						<g id="shape206-316" v:mID="206" v:groupContext="shape" transform="translate(20.7963,-5.97933)">
							<title>Search</title>
							<desc>Search</desc>
							<v:textBlock v:margins="rect(0,0,0,0)" v:tabSpace="42.5197"/>
							<v:textRect cx="43.7824" cy="517.234" width="87.57" height="14.3504"/>
							<rect x="0" y="510.059" width="87.5648" height="14.3504" class="st18"/>
							<text x="-0" y="521.43" class="st21" v:langID="1049"><v:paragraph/><v:tabList/>Search</text>						</g>
					</g>
				</g>
				<g id="group207-319" transform="translate(102.412,-0.0740161)" v:mID="207" v:groupContext="group">
					<title>Service-Label</title>
					<g id="shape208-320" v:mID="208" v:groupContext="shape">
						<title>path-7</title>
						<path d="M0 500.23 L67.13 500.23 L74.92 512.32 L67.13 524.41 L0 524.41 L0 500.23 Z" class="st22"/>
					</g>
					<g id="shape209-322" v:mID="209" v:groupContext="shape" transform="translate(14.7402,-4.425)">
						<title>Music</title>
						<desc>Music</desc>
						<v:textBlock v:margins="rect(0,0,0,0)" v:tabSpace="42.5197"/>
						<v:textRect cx="41.3501" cy="516.759" width="82.71" height="15.3"/>
						<rect x="0" y="509.109" width="82.7001" height="15.3" class="st18"/>
						<text x="0" y="521.56" class="st23" v:langID="1049"><v:paragraph/><v:tabList/>Music</text>					</g>
				</g>
			</g>
		</g>
		<g id="shape210-325" v:mID="210" v:groupContext="shape" transform="translate(225.814,472.499) rotate(-89.7483)">
			<title>Line.544.210</title>
			<path d="M0 524.41 L25.51 524.41" class="st24"/>
		</g>
		<g id="shape211-330" v:mID="211" v:groupContext="shape" transform="translate(505.417,-99.2126)">
			<title>Text (14).211</title>
			<desc>Result</desc>
			<v:textBlock v:margins="rect(4,4,4,4)" v:tabSpace="42.5197"/>
			<v:textRect cx="66.6142" cy="518.74" width="133.23" height="11.3386"/>
			<rect x="0" y="513.071" width="133.228" height="11.3386" class="st2"/>
			<text x="44.32" y="523.54" class="st4" v:langID="1033"><v:paragraph v:horizAlign="1"/><v:tabList/>Result</text>		</g>
		<g id="group212-334" transform="translate(473.102,-49.8898)" v:mID="212" v:groupContext="group">
			<title>Yandex</title>
			<g id="shape213-335" v:mID="213" v:groupContext="shape" transform="translate(14.7887,1.13687E-013)">
				<title>Shape</title>
				<path d="M9.04 503.7 L6.9 503.7 C6.73 503.7 6.62 503.84 6.62 503.94 L6.62 510.55 L2.66 510.55 L2.66 503.94 C2.66
							 503.77 2.59 503.7 2.42 503.7 L0.28 503.7 C0.1 503.7 0 503.8 0 503.94 L0 520.75 C0 520.92 0.07 521.02
							 0.24 521.02 L2.42 521.02 C2.55 521.02 2.66 520.92 2.66 520.75 L2.66 512.72 L6.62 512.72 L6.62 520.74
							 C6.62 520.92 6.73 521.02 6.9 521.02 L9.04 521.02 C9.21 521.02 9.28 520.88 9.28 520.74 L9.28 503.94 C9.28
							 503.8 9.18 503.7 9.04 503.7 ZM57.32 518.74 C57.29 518.64 57.25 518.6 57.15 518.6 C56.98 518.6 56.05
							 518.98 54.7 518.98 C52.08 518.98 50.8 516.46 50.8 512.45 C50.8 508.92 51.87 505.43 53.67 505.43 C54.15
							 505.43 54.74 505.57 55.67 506.43 C55.77 506.53 55.84 506.57 55.94 506.57 C56.05 506.57 56.15 506.5 56.25
							 506.33 L57.19 504.81 C57.25 504.7 57.29 504.6 57.29 504.49 C57.29 504.36 57.15 504.25 56.94 504.15 C55.53
							 503.42 54.56 503.28 53.74 503.28 C50.49 503.28 47.97 507.16 47.97 513.21 C47.97 518.43 50.39 521.44
							 53.84 521.44 C55.29 521.44 56.84 520.74 57.46 520.29 C57.6 520.19 57.64 520.05 57.6 519.91 L57.32 518.74
							 ZM42.66 511.51 L46.8 503.94 C46.87 503.84 46.84 503.7 46.7 503.7 L44.66 503.7 C44.08 503.7 43.87 503.91
							 43.66 504.36 L40.56 510.82 C40.39 511.2 40.21 511.44 40.04 511.55 L40.04 503.94 C40.04 503.8 39.97 503.7
							 39.83 503.7 L37.59 503.7 C37.49 503.7 37.38 503.8 37.38 503.94 L37.38 520.78 C37.38 520.88 37.45 521.02
							 37.59 521.02 L39.83 521.02 C39.97 521.02 40.04 520.92 40.04 520.78 L40.04 512.1 C40.14 512.17 40.21
							 512.28 40.28 512.41 L44.22 520.5 C44.42 520.92 44.73 521.02 45.18 521.02 L47.39 521.02 C47.53 521.02
							 47.56 520.88 47.49 520.78 L42.66 511.51 ZM22.42 518.84 L22.01 518.84 C21.49 518.84 21.35 518.64 21.35
							 518.22 L21.35 503.94 C21.35 503.77 21.28 503.7 21.14 503.7 L14.24 503.7 C14.07 503.7 13.97 503.8 13.97
							 503.94 L13.97 505.19 C13.97 509.37 13.73 514.76 11.52 518.84 L10.76 518.84 C10.55 518.84 10.48 518.95
							 10.48 519.12 L10.48 524.17 C10.48 524.34 10.62 524.41 10.72 524.41 L12.38 524.41 C12.76 524.41 12.9
							 524.13 12.9 523.89 L12.9 521.02 L20.28 521.02 L20.28 524.17 C20.28 524.31 20.38 524.41 20.52 524.41
							 L22.28 524.41 C22.49 524.41 22.7 524.24 22.7 523.89 L22.7 519.12 C22.7 518.95 22.59 518.84 22.42 518.84
							 ZM18.69 518.84 L13.69 518.84 C15.45 515.83 16.14 512.45 16.38 508.3 C16.45 507.4 16.49 506.47 16.49
							 505.88 L18.69 505.88 L18.69 518.84 ZM29.74 503.28 C26.01 503.28 24.36 507.99 24.36 513.1 C24.36 518.32
							 26.7 521.44 30.15 521.44 C31.84 521.44 33.33 520.78 34.08 520.29 C34.22 520.22 34.26 520.12 34.22 519.98
							 L33.95 518.81 C33.91 518.67 33.84 518.6 33.67 518.6 C33.53 518.6 32.53 518.98 31.12 518.98 C28.46 518.98
							 27.22 516.66 27.22 513.62 L27.22 512.8 C27.22 512.8 28.57 512.97 29.36 512.97 L34.4 512.97 L34.4 511.51
							 C34.4 506.16 32.5 503.28 29.74 503.28 ZM29.36 510.79 C28.56 510.79 27.32 510.93 27.32 510.93 C27.32
							 510.93 27.32 510.41 27.39 509.86 C27.7 506.92 28.43 505.43 29.64 505.43 C30.74 505.43 31.43 506.95 31.6
							 509.61 C31.64 510.17 31.64 510.79 31.64 510.79 L29.36 510.79 Z" class="st25"/>
			</g>
			<g id="shape214-337" v:mID="214" v:groupContext="shape" transform="translate(0,-3.22254)">
				<title>Sheet.214</title>
				<path d="M12.11 498.48 L8.18 498.48 C4.31 498.48 1.03 501.42 1.03 507.12 C1.03 510.55 2.62 513.07 5.45 514.32 L0.17
							 523.86 C0 524.17 0.17 524.41 0.45 524.41 L2.9 524.41 C3.11 524.41 3.24 524.34 3.31 524.17 L8.11 514.8
							 L9.83 514.8 L9.83 524.17 C9.83 524.27 9.94 524.41 10.07 524.41 L12.21 524.41 C12.42 524.41 12.49 524.31
							 12.49 524.13 L12.49 498.83 C12.49 498.58 12.35 498.48 12.11 498.48 ZM9.83 512.59 L8.38 512.59 C6.11
							 512.59 3.9 510.93 3.9 506.78 C3.9 502.46 5.97 500.69 8.07 500.69 L9.83 500.69 L9.83 512.59 Z"
						class="st26"/>
			</g>
		</g>
	</g>
</svg>
