<?xml version="1.0" encoding="UTF-8" standalone="no"?>
<!DOCTYPE svg PUBLIC "-//W3C//DTD SVG 1.1//EN" "http://www.w3.org/Graphics/SVG/1.1/DTD/svg11.dtd">
<!-- Generated by Microsoft Visio, SVG Export shouldDeps&#38;mustDeps.svg new-page -->
<svg xmlns="http://www.w3.org/2000/svg" xmlns:xlink="http://www.w3.org/1999/xlink" xmlns:ev="http://www.w3.org/2001/xml-events"
		width="695" height="385" viewBox="0 0 694.713 384.616" xml:space="preserve" color-interpolation-filters="sRGB"
		class="st17">
	<style type="text/css">
	<![CDATA[
		.st1 {fill:#ffcc00;stroke:none;stroke-linecap:round;stroke-linejoin:round;stroke-width:0.72}
		.st2 {fill:none;marker-end:url(#mrkr13-7);stroke:none;stroke-linecap:butt;stroke-width:1.5}
		.st3 {fill:#ffcc00;fill-opacity:1;stroke:#ffcc00;stroke-opacity:1;stroke-width:0.37313432835821}
		.st4 {fill:#000000;font-family:Yandex Sans Text Light;font-size:1.33333em;font-weight:bold}
		.st5 {fill:#ffffff;stroke:#ffcc00;stroke-linecap:butt;stroke-width:1.5}
		.st6 {fill:#12100b;stroke:none;stroke-linecap:butt;stroke-width:1.5}
		.st7 {fill:#ffcc09}
		.st8 {stroke:#010202;stroke-linecap:round;stroke-linejoin:round;stroke-width:1.5}
		.st9 {fill:#ffffff;stroke:#bfbfbf;stroke-width:1.75}
		.st10 {fill:#ffffff;stroke:#ffffff;stroke-linecap:round;stroke-linejoin:round;stroke-width:0.72}
		.st11 {fill:none;stroke:none;stroke-linecap:round;stroke-linejoin:round;stroke-width:0.72}
		.st12 {fill:#bfbfbf;font-family:Arial;font-size:0.833336em}
		.st13 {fill:#000000;font-family:Arial;font-size:1.00001em}
		.st14 {fill:#bfbfbf;stroke:none;stroke-linecap:round;stroke-linejoin:round;stroke-width:0.24}
		.st15 {fill:#ffffff;font-family:Yandex Sans Text Medium;font-size:1.00001em;font-weight:bold}
		.st16 {fill:#ffffff;font-family:Yandex Sans Text Medium;font-size:1.33333em}
		.st17 {fill:none;fill-rule:evenodd;font-size:12px;overflow:visible;stroke-linecap:square;stroke-miterlimit:3}
	]]>
	</style>

	<defs id="Markers">
		<g id="lend13">
			<path d="M 3 1 L 0 0 L 3 -1 L 3 1 " style="stroke:none"/>
		</g>
		<marker id="mrkr13-7" class="st3" refX="-8.04" orient="auto" markerUnits="strokeWidth" overflow="visible">
			<use xlink:href="#lend13" transform="scale(-2.68,-2.68) "/>
		</marker>
	</defs>
	<g>
		<title>scheme1</title>
		<g id="group215-1" transform="translate(600.303,-230.701)">
			<title>Sheet.215</title>
		</g>
		<g id="shape1-2" transform="translate(154.216,-353.904)">
			<title>Горизонтальная линия выноски.540</title>
			<path d="M0 384.62 L134.31 384.62 L0 384.62 Z" class="st1"/>
		</g>
		<g id="shape2-4" transform="translate(30.7124,-325.557)">
			<title>Text (14).543</title>
			<desc>search-form.deps.js</desc>
			<rect x="0" y="356.27" width="194.642" height="28.3465" class="st2"/>
			<text x="25.25" y="375.24" class="st4">search-form.deps.js</text>		</g>
		<g id="shape204-9" transform="translate(362.835,-325.217)">
			<title>Text (14).204</title>
			<desc>Bundles</desc>
			<rect x="0" y="356.27" width="127.998" height="28.3465" class="st2"/>
			<text x="35.01" y="375.24" class="st4">Bundles</text>		</g>
		<g id="group242-13" transform="translate(56.126,-188.705)">
			<title>Sheet.242</title>
		</g>
		<g id="group243-14" transform="translate(676.044,114.613) rotate(90)">
			<title>Yellow Bold Arrow.546</title>
			<g id="shape244-15">
				<title>Sheet.244</title>
				<path d="M13.05 355.9 L13.05 384.62 L36.55 384.62 L36.55 355.9 L49.61 355.9 L24.8 331.09 L0 355.9 L13.05 355.9 Z"
						class="st5"/>
			</g>
		</g>
		<g id="group273-18" transform="translate(587.1,-190.153)">
			<title>Sheet.273</title>
			<g id="group240-19">
				<title>Sheet.240</title>
				<g id="shape93-20">
					<title>Sheet.93</title>
					<path d="M70.01 276.69 C70.39 276.69 70.78 276.86 71.05 277.13 L85.42 291.5 C85.69 291.77 85.86 292.16 85.86
								 292.54 L85.86 380.93 C85.86 381.75 85.2 382.41 84.37 382.41 L3.69 382.41 C2.86 382.41 2.2 381.75
								 2.2 380.93 L2.2 278.18 C2.2 277.35 2.86 276.69 3.69 276.69 L70.01 276.69 ZM70.01 274.49 L3.69 274.49
								 C1.65 274.49 0 276.14 0 278.18 L0 380.93 C0 382.97 1.65 384.62 3.69 384.62 L84.43 384.62 C86.46
								 384.62 88.11 382.97 88.11 380.93 L88.11 292.54 C88.11 291.55 87.73 290.61 87.01 289.95 L72.65 275.59
								 C71.93 274.87 71 274.49 70.01 274.49 Z" class="st6"/>
				</g>
				<g id="shape95-22" transform="translate(69.7307,-91.7451)">
					<title>Sheet.95</title>
					<path d="M0 367.33 L0 380.93 C-0 382.97 1.65 384.62 3.69 384.62 L17.23 384.62 L0 367.33 Z" class="st7"/>
					<path d="M0 367.33 L0 380.93 C-0 382.97 1.65 384.62 3.69 384.62 L17.23 384.62" class="st8"/>
				</g>
			</g>
			<g id="group256-25" transform="translate(8.14411,-47.4979)">
				<title>Sheet.256</title>
				<g id="group247-26">
					<title>Sheet.247</title>
					<g id="shape211-27" transform="translate(271.965,91.8255) rotate(45)">
						<title>Sheet.211</title>
						<rect x="0" y="374.57" width="10.297" height="10.0459" class="st9"/>
					</g>
					<g id="shape212-29" transform="translate(289.212,91.9935) rotate(45)">
						<title>Sheet.212</title>
						<rect x="0" y="374.57" width="10.297" height="10.0459" class="st9"/>
					</g>
					<g id="shape213-31" transform="translate(275.825,101.286) rotate(45)">
						<title>Sheet.213</title>
						<rect x="0" y="367.538" width="16.0734" height="17.078" class="st10"/>
					</g>
					<g id="shape214-33" transform="translate(276.138,83.2211) rotate(45)">
						<title>Sheet.214</title>
						<rect x="0" y="367.538" width="16.0734" height="17.078" class="st10"/>
					</g>
				</g>
				<g id="shape249-35" transform="translate(1.39762,-16.4656)">
					<title>Sheet.249</title>
					<desc>code</desc>
					<rect x="0" y="376.438" width="29.9471" height="8.17777" class="st11"/>
					<text x="4.13" y="383.53" class="st12">code</text>				</g>
			</g>
			<g id="shape94-38" transform="translate(-1.50763,-80.3862)">
				<title>Sheet.94</title>
				<desc># search-form</desc>
				<text x="6.67" y="384.23" class="st13"># search-form</text>			</g>
			<g id="group264-40" transform="translate(8.43402,-11.4647)">
				<title>Sheet.264</title>
				<g id="group265-41">
					<title>Sheet.265</title>
					<g id="shape266-42" transform="translate(271.965,91.8255) rotate(45)">
						<title>Sheet.266</title>
						<rect x="0" y="374.57" width="10.297" height="10.0459" class="st9"/>
					</g>
					<g id="shape267-44" transform="translate(289.212,91.9935) rotate(45)">
						<title>Sheet.267</title>
						<rect x="0" y="374.57" width="10.297" height="10.0459" class="st9"/>
					</g>
					<g id="shape268-46" transform="translate(275.825,101.286) rotate(45)">
						<title>Sheet.268</title>
						<rect x="0" y="367.538" width="16.0734" height="17.078" class="st10"/>
					</g>
					<g id="shape269-48" transform="translate(276.138,83.2211) rotate(45)">
						<title>Sheet.269</title>
						<rect x="0" y="367.538" width="16.0734" height="17.078" class="st10"/>
					</g>
				</g>
				<g id="shape270-50" transform="translate(1.39762,-16.4656)">
					<title>Sheet.270</title>
					<desc>code</desc>
					<rect x="0" y="376.438" width="29.9471" height="8.17777" class="st11"/>
					<text x="4.13" y="383.53" class="st12">code</text>				</g>
			</g>
			<g id="shape271-53" transform="translate(-1.70075,-44.353)">
				<title>Sheet.271</title>
				<desc># button</desc>
				<text x="6.67" y="384.23" class="st13"># button</text>			</g>
		</g>
		<g id="group274-55" transform="translate(398.653,-190.097)">
			<title>Sheet.274</title>
			<g id="group275-56">
				<title>Sheet.275</title>
				<g id="shape276-57">
					<title>Sheet.276</title>
					<path d="M70.19 276.41 C70.57 276.41 70.96 276.58 71.23 276.85 L85.64 291.26 C85.91 291.53 86.08 291.92 86.08
								 292.3 L86.08 380.92 C86.08 381.75 85.41 382.41 84.59 382.41 L3.7 382.41 C2.87 382.41 2.21 381.75
								 2.21 380.92 L2.21 277.9 C2.21 277.07 2.87 276.41 3.7 276.41 L70.19 276.41 ZM70.19 274.21 L3.7 274.21
								 C1.66 274.21 0 275.86 0 277.9 L0 380.92 C0 382.96 1.66 384.62 3.7 384.62 L84.64 384.62 C86.68 384.62
								 88.34 382.96 88.34 380.92 L88.34 292.3 C88.34 291.31 87.95 290.37 87.24 289.71 L72.83 275.31 C72.12
								 274.59 71.18 274.21 70.19 274.21 Z" class="st6"/>
				</g>
				<g id="shape277-59" transform="translate(69.9101,-91.9811)">
					<title>Sheet.277</title>
					<path d="M0 367.29 L0 380.92 C-0 382.96 1.66 384.62 3.7 384.62 L17.27 384.62 L0 367.29 Z" class="st7"/>
					<path d="M0 367.29 L0 380.92 C-0 382.96 1.66 384.62 3.7 384.62 L17.27 384.62" class="st8"/>
				</g>
			</g>
			<g id="group278-62" transform="translate(8.16506,-47.6201)">
				<title>Sheet.278</title>
				<g id="group279-63">
					<title>Sheet.279</title>
					<g id="shape280-64" transform="translate(271.965,91.772) rotate(45)">
						<title>Sheet.280</title>
						<rect x="0" y="374.544" width="10.3235" height="10.0717" class="st9"/>
					</g>
					<g id="shape281-66" transform="translate(289.257,91.9404) rotate(45)">
						<title>Sheet.281</title>
						<rect x="0" y="374.544" width="10.3235" height="10.0717" class="st9"/>
					</g>
					<g id="shape282-68" transform="translate(275.835,101.257) rotate(45)">
						<title>Sheet.282</title>
						<rect x="0" y="367.494" width="16.1147" height="17.1219" class="st10"/>
					</g>
					<g id="shape283-70" transform="translate(276.149,83.1454) rotate(45)">
						<title>Sheet.283</title>
						<rect x="0" y="367.494" width="16.1147" height="17.1219" class="st10"/>
					</g>
				</g>
				<g id="shape284-72" transform="translate(1.40122,-16.508)">
					<title>Sheet.284</title>
					<desc>code</desc>
					<rect x="0" y="376.417" width="30.0242" height="8.19881" class="st11"/>
					<text x="4.17" y="383.52" class="st12">code</text>				</g>
			</g>
			<g id="shape285-75" transform="translate(4.8753,-80.593)">
				<title>Sheet.285</title>
				<desc># button</desc>
				<text x="0" y="384.22" class="st13"># button</text>			</g>
			<g id="group287-77" transform="translate(8.45571,-11.4942)">
				<title>Sheet.287</title>
				<g id="shape288-78" transform="translate(271.965,91.772) rotate(45)">
					<title>Sheet.288</title>
					<rect x="0" y="374.544" width="10.3235" height="10.0717" class="st9"/>
				</g>
				<g id="shape289-80" transform="translate(289.257,91.9404) rotate(45)">
					<title>Sheet.289</title>
					<rect x="0" y="374.544" width="10.3235" height="10.0717" class="st9"/>
				</g>
				<g id="shape290-82" transform="translate(275.835,101.257) rotate(45)">
					<title>Sheet.290</title>
					<rect x="0" y="367.494" width="16.1147" height="17.1219" class="st10"/>
				</g>
				<g id="shape291-84" transform="translate(276.149,83.1454) rotate(45)">
					<title>Sheet.291</title>
					<rect x="0" y="367.494" width="16.1147" height="17.1219" class="st10"/>
				</g>
			</g>
			<g id="shape292-86" transform="translate(9.85693,-28.0022)">
				<title>Sheet.292</title>
				<desc>code</desc>
				<rect x="0" y="376.417" width="30.0242" height="8.19881" class="st11"/>
				<text x="4.17" y="383.52" class="st12">code</text>			</g>
			<g id="shape293-89" transform="translate(5.24862,-44.467)">
				<title>Sheet.293</title>
				<desc># search-form</desc>
				<text x="0" y="384.22" class="st13"># search-form</text>			</g>
		</g>
		<g id="shape296-91" transform="translate(522.545,-235.702)">
			<title>Numbers 10+ Gray</title>
			<desc>OR</desc>
			<rect x="0" y="365.59" width="26.9532" height="19.0258" rx="9.51288" ry="9.51288" class="st14"/>
			<text x="4.9" y="378.7" class="st15">OR</text>		</g>
		<g id="group299-94" transform="translate(55.8993,-23.3881)">
			<title>Sheet.299</title>
		</g>
		<g id="group302-95" transform="translate(675.817,279.93) rotate(90)">
			<title>Yellow Bold Arrow.302</title>
			<g id="shape303-96">
				<title>Sheet.303</title>
				<path d="M13.05 355.9 L13.05 384.62 L36.55 384.62 L36.55 355.9 L49.61 355.9 L24.8 331.09 L0 355.9 L13.05 355.9 Z"
						class="st5"/>
			</g>
		</g>
		<g id="group307-99" transform="translate(398.342,-26.46)">
			<title>Sheet.307</title>
			<g id="group308-100" transform="translate(1.11894,2.23788)">
				<title>Sheet.308</title>
				<g id="shape309-101">
					<title>Sheet.309</title>
					<path d="M70.19 276.41 C70.57 276.41 70.96 276.58 71.23 276.85 L85.64 291.26 C85.91 291.53 86.08 291.92 86.08
								 292.3 L86.08 380.92 C86.08 381.75 85.41 382.41 84.59 382.41 L3.7 382.41 C2.87 382.41 2.21 381.75
								 2.21 380.92 L2.21 277.9 C2.21 277.07 2.87 276.41 3.7 276.41 L70.19 276.41 ZM70.19 274.21 L3.7 274.21
								 C1.66 274.21 0 275.86 0 277.9 L0 380.92 C0 382.96 1.66 384.62 3.7 384.62 L84.64 384.62 C86.68 384.62
								 88.34 382.96 88.34 380.92 L88.34 292.3 C88.34 291.31 87.95 290.37 87.24 289.71 L72.83 275.31 C72.12
								 274.59 71.18 274.21 70.19 274.21 Z" class="st6"/>
				</g>
				<g id="shape310-103" transform="translate(69.9101,-91.9811)">
					<title>Sheet.310</title>
					<path d="M0 367.29 L0 380.92 C-0 382.96 1.66 384.62 3.7 384.62 L17.27 384.62 L0 367.29 Z" class="st7"/>
					<path d="M0 367.29 L0 380.92 C-0 382.96 1.66 384.62 3.7 384.62 L17.27 384.62" class="st8"/>
				</g>
			</g>
			<g id="group311-106" transform="translate(8.16506,-47.6201)">
				<title>Sheet.311</title>
				<g id="group312-107">
					<title>Sheet.312</title>
					<g id="shape313-108" transform="translate(271.965,91.772) rotate(45)">
						<title>Sheet.313</title>
						<rect x="0" y="374.544" width="10.3235" height="10.0717" class="st9"/>
					</g>
					<g id="shape314-110" transform="translate(289.257,91.9404) rotate(45)">
						<title>Sheet.314</title>
						<rect x="0" y="374.544" width="10.3235" height="10.0717" class="st9"/>
					</g>
					<g id="shape315-112" transform="translate(275.835,101.257) rotate(45)">
						<title>Sheet.315</title>
						<rect x="0" y="367.494" width="16.1147" height="17.1219" class="st10"/>
					</g>
					<g id="shape316-114" transform="translate(276.149,83.1454) rotate(45)">
						<title>Sheet.316</title>
						<rect x="0" y="367.494" width="16.1147" height="17.1219" class="st10"/>
					</g>
				</g>
				<g id="shape317-116" transform="translate(1.40122,-16.508)">
					<title>Sheet.317</title>
					<desc>code</desc>
					<rect x="0" y="376.417" width="30.0242" height="8.19881" class="st11"/>
					<text x="4.17" y="383.52" class="st12">code</text>				</g>
			</g>
			<g id="shape318-119" transform="translate(4.8753,-80.593)">
				<title>Sheet.318</title>
				<desc># button</desc>
				<text x="0" y="384.22" class="st13"># button</text>			</g>
			<g id="group319-121" transform="translate(8.45571,-11.4942)">
				<title>Sheet.319</title>
				<g id="shape320-122" transform="translate(271.965,91.772) rotate(45)">
					<title>Sheet.320</title>
					<rect x="0" y="374.544" width="10.3235" height="10.0717" class="st9"/>
				</g>
				<g id="shape321-124" transform="translate(289.257,91.9404) rotate(45)">
					<title>Sheet.321</title>
					<rect x="0" y="374.544" width="10.3235" height="10.0717" class="st9"/>
				</g>
				<g id="shape322-126" transform="translate(275.835,101.257) rotate(45)">
					<title>Sheet.322</title>
					<rect x="0" y="367.494" width="16.1147" height="17.1219" class="st10"/>
				</g>
				<g id="shape323-128" transform="translate(276.149,83.1454) rotate(45)">
					<title>Sheet.323</title>
					<rect x="0" y="367.494" width="16.1147" height="17.1219" class="st10"/>
				</g>
			</g>
			<g id="shape324-130" transform="translate(9.85693,-28.0022)">
				<title>Sheet.324</title>
				<desc>code</desc>
				<rect x="0" y="376.417" width="30.0242" height="8.19881" class="st11"/>
				<text x="4.17" y="383.52" class="st12">code</text>			</g>
			<g id="shape325-133" transform="translate(5.24862,-44.467)">
				<title>Sheet.325</title>
				<desc># search-form</desc>
				<text x="0" y="384.22" class="st13"># search-form</text>			</g>
		</g>
		<g id="group346-135" transform="translate(55.753,-184.267)">
			<title>Sheet.346</title>
			<g id="shape241-136">
				<title>Подложка с рамкой 700x450 px.545</title>
				<rect x="0" y="263.122" width="188.877" height="121.494" rx="21.2598" ry="21.2598" class="st14"/>
			</g>
			<g id="shape15-138" transform="translate(12.4353,-96.3624)">
				<title>Text (14).17</title>
				<desc>({</desc>
				<rect x="0" y="367.945" width="166.296" height="16.6714" rx="8.33571" ry="8.33571" class="st14"/>
				<text x="2" y="381.08" class="st16">({</text>			</g>
			<g id="shape329-141" transform="translate(33.2767,-75.5211)">
				<title>Text (14).329</title>
				<desc>shouldDeps: [</desc>
				<rect x="0" y="367.945" width="140.577" height="16.6714" rx="8.33571" ry="8.33571" class="st14"/>
				<text x="2" y="381.08" class="st16">shouldDeps: [</text>			</g>
			<g id="shape332-144" transform="translate(54.1181,-54.6797)">
				<title>Text (14).332</title>
				<desc>{ block: &#39;button&#39; }</desc>
				<rect x="0" y="367.945" width="128.239" height="16.6714" rx="8.33571" ry="8.33571" class="st14"/>
				<text x="2" y="381.08" class="st16">{ block: &#39;button&#39; }</text>			</g>
			<g id="shape337-147" transform="translate(34.1053,-33.8383)">
				<title>Text (14).337</title>
				<desc>]</desc>
				<rect x="0" y="367.945" width="139.478" height="16.6714" rx="8.33571" ry="8.33571" class="st14"/>
				<text x="2" y="381.08" class="st16">]</text>			</g>
			<g id="shape342-150" transform="translate(12.8454,-12.9969)">
				<title>Text (14).342</title>
				<desc>})</desc>
				<rect x="0" y="367.945" width="165.912" height="16.6714" rx="8.33571" ry="8.33571" class="st14"/>
				<text x="2" y="381.08" class="st16">})</text>			</g>
		</g>
		<g id="group347-153" transform="translate(56.7519,-19.993)">
			<title>Sheet.347</title>
			<g id="shape348-154">
				<title>Подложка с рамкой 700x450 px.545</title>
				<rect x="0" y="263.122" width="188.877" height="121.494" rx="21.2598" ry="21.2598" class="st14"/>
			</g>
			<g id="shape349-156" transform="translate(12.4353,-96.3624)">
				<title>Text (14).17</title>
				<desc>({</desc>
				<rect x="0" y="367.945" width="166.296" height="16.6714" rx="8.33571" ry="8.33571" class="st14"/>
				<text x="2" y="381.08" class="st16">({</text>			</g>
			<g id="shape350-159" transform="translate(33.2767,-75.5211)">
				<title>Text (14).329</title>
				<desc>mustDeps: [</desc>
				<rect x="0" y="367.945" width="140.577" height="16.6714" rx="8.33571" ry="8.33571" class="st14"/>
				<text x="2" y="381.08" class="st16">mustDeps: [</text>			</g>
			<g id="shape351-162" transform="translate(54.1181,-54.6797)">
				<title>Text (14).332</title>
				<desc>{ block: &#39;button&#39; }</desc>
				<rect x="0" y="367.945" width="128.239" height="16.6714" rx="8.33571" ry="8.33571" class="st14"/>
				<text x="2" y="381.08" class="st16">{ block: &#39;button&#39; }</text>			</g>
			<g id="shape352-165" transform="translate(34.1053,-33.8383)">
				<title>Text (14).337</title>
				<desc>]</desc>
				<rect x="0" y="367.945" width="139.478" height="16.6714" rx="8.33571" ry="8.33571" class="st14"/>
				<text x="2" y="381.08" class="st16">]</text>			</g>
			<g id="shape353-168" transform="translate(12.8454,-12.9969)">
				<title>Text (14).342</title>
				<desc>})</desc>
				<rect x="0" y="367.945" width="165.912" height="16.6714" rx="8.33571" ry="8.33571" class="st14"/>
				<text x="2" y="381.08" class="st16">})</text>			</g>
		</g>
	</g>
</svg>
